<svg width="763" height="251" viewBox="0 0 763 251" fill="none" xmlns="http://www.w3.org/2000/svg">
<g clip-path="url(#clip0_54_2614)">
<rect width="763" height="251" fill="#E1D4C2"/>
<path d="M3.80114 12.1193C3.44318 12.1136 3.08523 12.0455 2.72727 11.9148C2.36932 11.7841 2.04261 11.5639 1.74716 11.2543C1.4517 10.9418 1.21449 10.5199 1.03551 9.98864C0.856534 9.45455 0.767045 8.78409 0.767045 7.97727C0.767045 7.20455 0.839489 6.51989 0.984375 5.9233C1.12926 5.32386 1.33949 4.8196 1.61506 4.41051C1.89063 3.99858 2.22301 3.68608 2.61222 3.47301C3.00426 3.25994 3.44602 3.15341 3.9375 3.15341C4.42614 3.15341 4.8608 3.25142 5.24148 3.44744C5.625 3.64062 5.9375 3.91051 6.17898 4.2571C6.42045 4.60369 6.5767 5.00284 6.64773 5.45455H5.60795C5.51136 5.0625 5.32386 4.73722 5.04545 4.47869C4.76705 4.22017 4.39773 4.09091 3.9375 4.09091C3.26136 4.09091 2.72869 4.38494 2.33949 4.97301C1.95313 5.56108 1.75852 6.38636 1.75568 7.44886H1.82386C1.98295 7.20739 2.17188 7.00142 2.39062 6.83097C2.61222 6.65767 2.85653 6.52415 3.12358 6.4304C3.39063 6.33665 3.6733 6.28977 3.97159 6.28977C4.47159 6.28977 4.92898 6.41477 5.34375 6.66477C5.75852 6.91193 6.09091 7.25426 6.34091 7.69176C6.59091 8.12642 6.71591 8.625 6.71591 9.1875C6.71591 9.72727 6.59517 10.2216 6.35369 10.6705C6.11222 11.1165 5.77273 11.4716 5.33523 11.7358C4.90057 11.9972 4.3892 12.125 3.80114 12.1193ZM3.80114 11.1818C4.15909 11.1818 4.48011 11.0923 4.7642 10.9134C5.05114 10.7344 5.27699 10.4943 5.44176 10.1932C5.60938 9.89205 5.69318 9.55682 5.69318 9.1875C5.69318 8.8267 5.61222 8.49858 5.45028 8.20312C5.29119 7.90483 5.07102 7.66761 4.78977 7.49148C4.51136 7.31534 4.19318 7.22727 3.83523 7.22727C3.56534 7.22727 3.31392 7.28125 3.08097 7.3892C2.84801 7.49432 2.64347 7.6392 2.46733 7.82386C2.29403 8.00852 2.15767 8.22017 2.05824 8.45881C1.95881 8.6946 1.90909 8.94318 1.90909 9.20455C1.90909 9.55114 1.99006 9.875 2.15199 10.1761C2.31676 10.4773 2.54119 10.7202 2.82528 10.9048C3.11222 11.0895 3.4375 11.1818 3.80114 11.1818ZM11.2383 12.1193C10.5962 12.1193 10.0494 11.9446 9.59766 11.5952C9.14595 11.2429 8.80078 10.733 8.56214 10.0653C8.32351 9.39489 8.20419 8.58523 8.20419 7.63636C8.20419 6.69318 8.32351 5.88778 8.56214 5.22017C8.80362 4.54972 9.15021 4.03835 9.60192 3.68608C10.0565 3.33097 10.6019 3.15341 11.2383 3.15341C11.8746 3.15341 12.4187 3.33097 12.8704 3.68608C13.3249 4.03835 13.6715 4.54972 13.9102 5.22017C14.1516 5.88778 14.2724 6.69318 14.2724 7.63636C14.2724 8.58523 14.1531 9.39489 13.9144 10.0653C13.6758 10.733 13.3306 11.2429 12.8789 11.5952C12.4272 11.9446 11.8803 12.1193 11.2383 12.1193ZM11.2383 11.1818C11.8746 11.1818 12.369 10.875 12.7212 10.2614C13.0735 9.64773 13.2496 8.77273 13.2496 7.63636C13.2496 6.88068 13.1687 6.23722 13.0067 5.70597C12.8477 5.17472 12.6175 4.76989 12.3164 4.49148C12.0181 4.21307 11.6587 4.07386 11.2383 4.07386C10.6076 4.07386 10.1147 4.38494 9.75959 5.0071C9.40447 5.62642 9.22692 6.50284 9.22692 7.63636C9.22692 8.39205 9.30646 9.03409 9.46555 9.5625C9.62464 10.0909 9.85334 10.4929 10.1516 10.7685C10.4528 11.044 10.815 11.1818 11.2383 11.1818Z" fill="black"/>
<path d="M0.903409 90.6089V89.8418L3.78409 86.6884C4.12216 86.3191 4.40057 85.9981 4.61932 85.7254C4.83807 85.4498 5 85.1913 5.10511 84.9498C5.21307 84.7055 5.26705 84.4498 5.26705 84.1828C5.26705 83.8759 5.19318 83.6103 5.04545 83.3859C4.90057 83.1614 4.7017 82.9881 4.44886 82.866C4.19602 82.7438 3.91193 82.6828 3.59659 82.6828C3.26136 82.6828 2.96875 82.7524 2.71875 82.8916C2.47159 83.0279 2.27983 83.2197 2.14347 83.4668C2.00994 83.714 1.94318 84.0038 1.94318 84.3362H0.9375C0.9375 83.8248 1.0554 83.3759 1.29119 82.9896C1.52699 82.6032 1.84801 82.3021 2.25426 82.0862C2.66335 81.8702 3.12216 81.7623 3.63068 81.7623C4.14205 81.7623 4.59517 81.8702 4.99006 82.0862C5.38494 82.3021 5.6946 82.5933 5.91903 82.9597C6.14347 83.3262 6.25568 83.7339 6.25568 84.1828C6.25568 84.5038 6.19744 84.8177 6.08097 85.1245C5.96733 85.4285 5.76847 85.768 5.48438 86.143C5.20312 86.5151 4.8125 86.9697 4.3125 87.5066L2.35227 89.6032V89.6714H6.40909V90.6089H0.903409ZM11.0156 90.7282C10.3736 90.7282 9.8267 90.5535 9.375 90.2041C8.9233 89.8518 8.57813 89.3418 8.33949 88.6742C8.10085 88.0038 7.98153 87.1941 7.98153 86.2453C7.98153 85.3021 8.10085 84.4967 8.33949 83.8291C8.58097 83.1586 8.92756 82.6472 9.37926 82.295C9.83381 81.9399 10.3793 81.7623 11.0156 81.7623C11.652 81.7623 12.196 81.9399 12.6477 82.295C13.1023 82.6472 13.4489 83.1586 13.6875 83.8291C13.929 84.4967 14.0497 85.3021 14.0497 86.2453C14.0497 87.1941 13.9304 88.0038 13.6918 88.6742C13.4531 89.3418 13.108 89.8518 12.6562 90.2041C12.2045 90.5535 11.6577 90.7282 11.0156 90.7282ZM11.0156 89.7907C11.652 89.7907 12.1463 89.4839 12.4986 88.8703C12.8509 88.2566 13.027 87.3816 13.027 86.2453C13.027 85.4896 12.946 84.8461 12.7841 84.3149C12.625 83.7836 12.3949 83.3788 12.0938 83.1004C11.7955 82.822 11.4361 82.6828 11.0156 82.6828C10.3849 82.6828 9.89205 82.9938 9.53693 83.616C9.18182 84.2353 9.00426 85.1117 9.00426 86.2453C9.00426 87.0009 9.08381 87.643 9.2429 88.1714C9.40199 88.6998 9.63068 89.1018 9.92898 89.3774C10.2301 89.6529 10.5923 89.7907 11.0156 89.7907Z" fill="black"/>
<path d="M4.67045 164.385V165.323H0.852273V164.385H4.67045ZM6.01278 169.218V168.45L8.89347 165.297C9.23153 164.928 9.50994 164.607 9.72869 164.334C9.94744 164.058 10.1094 163.8 10.2145 163.558C10.3224 163.314 10.3764 163.058 10.3764 162.791C10.3764 162.485 10.3026 162.219 10.1548 161.995C10.0099 161.77 9.81108 161.597 9.55824 161.475C9.3054 161.352 9.02131 161.291 8.70597 161.291C8.37074 161.291 8.07812 161.361 7.82812 161.5C7.58097 161.637 7.3892 161.828 7.25284 162.075C7.11932 162.323 7.05256 162.612 7.05256 162.945H6.04688C6.04688 162.433 6.16477 161.985 6.40057 161.598C6.63636 161.212 6.95739 160.911 7.36364 160.695C7.77273 160.479 8.23153 160.371 8.74006 160.371C9.25142 160.371 9.70455 160.479 10.0994 160.695C10.4943 160.911 10.804 161.202 11.0284 161.568C11.2528 161.935 11.3651 162.343 11.3651 162.791C11.3651 163.112 11.3068 163.426 11.1903 163.733C11.0767 164.037 10.8778 164.377 10.5938 164.752C10.3125 165.124 9.92188 165.578 9.42188 166.115L7.46165 168.212V168.28H11.5185V169.218H6.01278ZM16.125 169.337C15.483 169.337 14.9361 169.162 14.4844 168.813C14.0327 168.46 13.6875 167.95 13.4489 167.283C13.2102 166.612 13.0909 165.803 13.0909 164.854C13.0909 163.911 13.2102 163.105 13.4489 162.438C13.6903 161.767 14.0369 161.256 14.4886 160.904C14.9432 160.548 15.4886 160.371 16.125 160.371C16.7614 160.371 17.3054 160.548 17.7571 160.904C18.2116 161.256 18.5582 161.767 18.7969 162.438C19.0384 163.105 19.1591 163.911 19.1591 164.854C19.1591 165.803 19.0398 166.612 18.8011 167.283C18.5625 167.95 18.2173 168.46 17.7656 168.813C17.3139 169.162 16.767 169.337 16.125 169.337ZM16.125 168.399C16.7614 168.399 17.2557 168.093 17.608 167.479C17.9602 166.865 18.1364 165.99 18.1364 164.854C18.1364 164.098 18.0554 163.455 17.8935 162.923C17.7344 162.392 17.5043 161.987 17.2031 161.709C16.9048 161.431 16.5455 161.291 16.125 161.291C15.4943 161.291 15.0014 161.602 14.6463 162.225C14.2912 162.844 14.1136 163.72 14.1136 164.854C14.1136 165.61 14.1932 166.252 14.3523 166.78C14.5114 167.308 14.7401 167.71 15.0384 167.986C15.3395 168.262 15.7017 168.399 16.125 168.399Z" fill="black"/>
<path d="M4.67045 242.994V243.932H0.852273V242.994H4.67045ZM9.32067 247.946C8.96271 247.94 8.60476 247.872 8.2468 247.741C7.88885 247.611 7.56214 247.39 7.26669 247.081C6.97124 246.768 6.73402 246.346 6.55504 245.815C6.37607 245.281 6.28658 244.611 6.28658 243.804C6.28658 243.031 6.35902 242.346 6.50391 241.75C6.64879 241.15 6.85902 240.646 7.13459 240.237C7.41016 239.825 7.74254 239.512 8.13175 239.299C8.52379 239.086 8.96555 238.98 9.45703 238.98C9.94567 238.98 10.3803 239.078 10.761 239.274C11.1445 239.467 11.457 239.737 11.6985 240.084C11.94 240.43 12.0962 240.829 12.1673 241.281H11.1275C11.0309 240.889 10.8434 240.564 10.565 240.305C10.2866 240.047 9.91726 239.917 9.45703 239.917C8.78089 239.917 8.24822 240.211 7.85902 240.799C7.47266 241.387 7.27805 242.213 7.27521 243.275H7.34339C7.50249 243.034 7.69141 242.828 7.91016 242.657C8.13175 242.484 8.37607 242.351 8.64311 242.257C8.91016 242.163 9.19283 242.116 9.49112 242.116C9.99112 242.116 10.4485 242.241 10.8633 242.491C11.2781 242.738 11.6104 243.081 11.8604 243.518C12.1104 243.953 12.2354 244.451 12.2354 245.014C12.2354 245.554 12.1147 246.048 11.8732 246.497C11.6317 246.943 11.2923 247.298 10.8548 247.562C10.4201 247.824 9.90874 247.951 9.32067 247.946ZM9.32067 247.008C9.67862 247.008 9.99964 246.919 10.2837 246.74C10.5707 246.561 10.7965 246.321 10.9613 246.02C11.1289 245.718 11.2127 245.383 11.2127 245.014C11.2127 244.653 11.1317 244.325 10.9698 244.03C10.8107 243.731 10.5906 243.494 10.3093 243.318C10.0309 243.142 9.71271 243.054 9.35476 243.054C9.08487 243.054 8.83345 243.108 8.6005 243.216C8.36754 243.321 8.163 243.466 7.98686 243.65C7.81357 243.835 7.6772 244.047 7.57777 244.285C7.47834 244.521 7.42862 244.77 7.42862 245.031C7.42862 245.378 7.50959 245.701 7.67152 246.003C7.83629 246.304 8.06072 246.547 8.34482 246.731C8.63175 246.916 8.95703 247.008 9.32067 247.008ZM16.7578 247.946C16.1158 247.946 15.5689 247.771 15.1172 247.422C14.6655 247.069 14.3203 246.559 14.0817 245.892C13.843 245.221 13.7237 244.412 13.7237 243.463C13.7237 242.52 13.843 241.714 14.0817 241.047C14.3232 240.376 14.6697 239.865 15.1214 239.512C15.576 239.157 16.1214 238.98 16.7578 238.98C17.3942 238.98 17.9382 239.157 18.3899 239.512C18.8445 239.865 19.1911 240.376 19.4297 241.047C19.6712 241.714 19.7919 242.52 19.7919 243.463C19.7919 244.412 19.6726 245.221 19.4339 245.892C19.1953 246.559 18.8501 247.069 18.3984 247.422C17.9467 247.771 17.3999 247.946 16.7578 247.946ZM16.7578 247.008C17.3942 247.008 17.8885 246.701 18.2408 246.088C18.593 245.474 18.7692 244.599 18.7692 243.463C18.7692 242.707 18.6882 242.064 18.5263 241.532C18.3672 241.001 18.1371 240.596 17.8359 240.318C17.5376 240.039 17.1783 239.9 16.7578 239.9C16.1271 239.9 15.6342 240.211 15.2791 240.834C14.924 241.453 14.7464 242.329 14.7464 243.463C14.7464 244.218 14.826 244.861 14.9851 245.389C15.1442 245.917 15.3729 246.319 15.6712 246.595C15.9723 246.87 16.3345 247.008 16.7578 247.008Z" fill="black"/>
<g clip-path="url(#clip1_54_2614)">
<rect width="734" height="251" transform="translate(29)" fill="#E1D4C2"/>
<rect x="34.5494" y="0.5" width="727.931" height="238" stroke="#E1D4C2"/>
<path d="M34.0494 79.666H762.98" stroke="#E1D4C2"/>
<path d="M34.0494 159.334H762.98" stroke="#E1D4C2"/>
<path d="M155.547 0L155.547 236.51" stroke="#E1D4C2"/>
<path d="M277.025 0L277.025 236.51" stroke="#E1D4C2"/>
<path d="M398.523 0L398.523 236.51" stroke="#E1D4C2"/>
<path d="M520.02 0L520.02 236.51" stroke="#E1D4C2"/>
<path d="M641.498 0L641.498 236.51" stroke="#E1D4C2"/>
<path d="M39.1379 83.8747C89.7798 92.9322 207.368 107.726 272.585 94.4418C354.106 77.8363 457.86 42.1093 493.68 29.0261C529.499 15.943 570.26 -2.17214 638.194 21.4782C706.128 45.1285 737.008 68.2755 760.476 70.2883" stroke="#291C0E"/>
<path d="M34.0615 80.2959C36.5874 80.2961 38.6221 82.3116 38.6221 84.7822C38.6221 87.2528 36.5874 89.2684 34.0615 89.2686C31.5354 89.2686 29.5 87.253 29.5 84.7822C29.5 82.3115 31.5354 80.2959 34.0615 80.2959Z" fill="#291C0E" stroke="#291C0E"/>
<path d="M155.559 95.2554C158.085 95.2556 160.12 97.2711 160.12 99.7417C160.12 102.212 158.085 104.228 155.559 104.228C153.033 104.228 150.998 102.212 150.998 99.7417C150.998 97.271 153.033 95.2554 155.559 95.2554Z" fill="#291C0E" stroke="#291C0E"/>
<path d="M277.037 87.7751C279.563 87.7754 281.598 89.7909 281.598 92.2615C281.598 94.7321 279.563 96.7476 277.037 96.7478C274.511 96.7478 272.476 94.7322 272.476 92.2615C272.476 89.7907 274.511 87.7751 277.037 87.7751Z" fill="#291C0E" stroke="#291C0E"/>
<path d="M398.535 57.8564C401.061 57.8566 403.096 59.8722 403.096 62.3428C403.096 64.8134 401.061 66.8289 398.535 66.8291C396.009 66.8291 393.974 64.8135 393.974 62.3428C393.974 59.872 396.009 57.8564 398.535 57.8564Z" fill="#291C0E" stroke="#291C0E"/>
<path d="M520.032 15.4727C522.558 15.4729 524.593 17.4884 524.593 19.959C524.593 22.4296 522.558 24.4451 520.032 24.4453C517.506 24.4453 515.471 22.4297 515.471 19.959C515.471 17.4883 517.506 15.4727 520.032 15.4727Z" fill="#291C0E" stroke="#291C0E"/>
<path d="M757.939 65.3364C760.465 65.3366 762.5 67.3521 762.5 69.8228C762.5 72.2934 760.465 74.3089 757.939 74.3091C755.413 74.3091 753.378 72.2935 753.378 69.8228C753.378 67.352 755.413 65.3364 757.939 65.3364Z" fill="#291C0E" stroke="#291C0E"/>
<path d="M641.51 17.9675C644.036 17.9677 646.071 19.9833 646.071 22.4539C646.071 24.9245 644.036 26.94 641.51 26.9402C638.984 26.9402 636.949 24.9246 636.949 22.4539C636.949 19.9831 638.984 17.9675 641.51 17.9675Z" fill="#291C0E" stroke="#291C0E"/>
<path d="M85.3744 241.727H86.2551V246.926C86.2551 247.39 86.1699 247.784 85.9994 248.109C85.829 248.433 85.5887 248.679 85.2785 248.847C84.9684 249.015 84.6026 249.099 84.1812 249.099C83.7835 249.099 83.4296 249.027 83.1194 248.883C82.8093 248.736 82.5655 248.528 82.3879 248.258C82.2103 247.988 82.1216 247.667 82.1216 247.295H82.988C82.988 247.501 83.0389 247.681 83.1407 247.835C83.2449 247.987 83.387 248.105 83.5669 248.19C83.7468 248.276 83.9516 248.318 84.1812 248.318C84.4345 248.318 84.65 248.265 84.8275 248.158C85.0051 248.052 85.14 247.896 85.2324 247.69C85.3271 247.481 85.3744 247.227 85.3744 246.926V241.727ZM89.5115 249.128C89.1658 249.128 88.8522 249.063 88.5704 248.933C88.2887 248.8 88.065 248.609 87.8993 248.361C87.7335 248.11 87.6507 247.807 87.6507 247.452C87.6507 247.139 87.7122 246.886 87.8353 246.692C87.9585 246.495 88.123 246.341 88.329 246.23C88.5349 246.119 88.7622 246.036 89.0108 245.982C89.2617 245.925 89.5139 245.88 89.7672 245.847C90.0986 245.804 90.3673 245.772 90.5733 245.751C90.7816 245.727 90.9331 245.688 91.0278 245.634C91.1249 245.579 91.1734 245.484 91.1734 245.349V245.321C91.1734 244.971 91.0775 244.698 90.8858 244.504C90.6964 244.31 90.4087 244.213 90.0228 244.213C89.6228 244.213 89.3091 244.301 89.0818 244.476C88.8545 244.651 88.6947 244.838 88.6024 245.037L87.8069 244.753C87.949 244.421 88.1384 244.163 88.3751 243.979C88.6142 243.792 88.8746 243.661 89.1564 243.588C89.4405 243.512 89.7198 243.474 89.9944 243.474C90.1696 243.474 90.3709 243.496 90.5981 243.538C90.8278 243.579 91.0491 243.663 91.2622 243.79C91.4776 243.918 91.6564 244.111 91.7984 244.369C91.9405 244.627 92.0115 244.973 92.0115 245.406V249H91.1734V248.261H91.1308C91.074 248.38 90.9793 248.506 90.8467 248.641C90.7141 248.776 90.5378 248.891 90.3176 248.986C90.0974 249.08 89.8287 249.128 89.5115 249.128ZM89.6393 248.375C89.9708 248.375 90.2501 248.31 90.4774 248.18C90.707 248.049 90.8799 247.881 90.9959 247.675C91.1142 247.469 91.1734 247.253 91.1734 247.026V246.259C91.1379 246.301 91.0598 246.34 90.939 246.376C90.8207 246.409 90.6834 246.438 90.5271 246.464C90.3732 246.488 90.2229 246.509 90.0761 246.528C89.9317 246.545 89.8145 246.559 89.7246 246.571C89.5067 246.599 89.3032 246.646 89.1138 246.71C88.9267 246.771 88.7752 246.865 88.6592 246.99C88.5456 247.113 88.4888 247.281 88.4888 247.494C88.4888 247.786 88.5965 248.006 88.8119 248.155C89.0297 248.302 89.3055 248.375 89.6393 248.375ZM94.3792 245.719V249H93.5411V243.545H94.3508V244.398H94.4218C94.5497 244.121 94.7438 243.898 95.0042 243.73C95.2646 243.56 95.6008 243.474 96.0127 243.474C96.382 243.474 96.7052 243.55 96.9822 243.702C97.2592 243.851 97.4746 244.078 97.6285 244.384C97.7824 244.687 97.8593 245.07 97.8593 245.534V249H97.0212V245.591C97.0212 245.162 96.91 244.829 96.6874 244.589C96.4649 244.348 96.1595 244.227 95.7712 244.227C95.5037 244.227 95.2646 244.285 95.0539 244.401C94.8456 244.517 94.6811 244.687 94.5603 244.909C94.4396 245.132 94.3792 245.402 94.3792 245.719Z" fill="black"/>
<path d="M204.631 249V241.727H208.992V242.509H205.511V244.966H208.665V245.747H205.511V249H204.631ZM212.273 249.114C211.747 249.114 211.294 248.998 210.913 248.766C210.534 248.531 210.242 248.205 210.036 247.786C209.832 247.364 209.73 246.874 209.73 246.315C209.73 245.757 209.832 245.264 210.036 244.838C210.242 244.41 210.528 244.076 210.895 243.837C211.264 243.595 211.695 243.474 212.188 243.474C212.472 243.474 212.752 243.522 213.029 243.616C213.306 243.711 213.558 243.865 213.786 244.078C214.013 244.289 214.194 244.568 214.329 244.916C214.464 245.264 214.531 245.693 214.531 246.202V246.557H210.327V245.832H213.679C213.679 245.525 213.617 245.25 213.494 245.009C213.374 244.767 213.201 244.576 212.976 244.437C212.753 244.297 212.491 244.227 212.188 244.227C211.854 244.227 211.565 244.31 211.321 244.476C211.08 244.639 210.894 244.852 210.764 245.115C210.633 245.378 210.568 245.66 210.568 245.96V246.443C210.568 246.855 210.639 247.204 210.781 247.491C210.926 247.775 211.126 247.991 211.381 248.141C211.637 248.287 211.934 248.361 212.273 248.361C212.493 248.361 212.692 248.33 212.869 248.268C213.049 248.205 213.204 248.11 213.335 247.984C213.465 247.857 213.565 247.698 213.636 247.509L214.446 247.736C214.361 248.01 214.218 248.252 214.016 248.46C213.815 248.666 213.567 248.827 213.271 248.943C212.975 249.057 212.642 249.114 212.273 249.114ZM215.92 249V241.727H216.758V244.412H216.829C216.89 244.317 216.976 244.196 217.085 244.05C217.196 243.901 217.354 243.768 217.56 243.652C217.769 243.534 218.05 243.474 218.406 243.474C218.865 243.474 219.27 243.589 219.62 243.819C219.97 244.049 220.244 244.374 220.44 244.795C220.637 245.217 220.735 245.714 220.735 246.287C220.735 246.865 220.637 247.365 220.44 247.789C220.244 248.21 219.972 248.537 219.624 248.769C219.276 248.999 218.874 249.114 218.42 249.114C218.069 249.114 217.789 249.056 217.578 248.94C217.367 248.821 217.205 248.687 217.092 248.538C216.978 248.387 216.89 248.261 216.829 248.162H216.729V249H215.92ZM216.744 246.273C216.744 246.685 216.804 247.048 216.925 247.363C217.045 247.675 217.222 247.92 217.454 248.098C217.686 248.273 217.97 248.361 218.306 248.361C218.657 248.361 218.949 248.268 219.183 248.084C219.42 247.897 219.598 247.646 219.716 247.331C219.837 247.014 219.897 246.661 219.897 246.273C219.897 245.889 219.838 245.544 219.72 245.236C219.603 244.926 219.427 244.681 219.19 244.501C218.956 244.318 218.661 244.227 218.306 244.227C217.965 244.227 217.679 244.314 217.447 244.487C217.215 244.657 217.04 244.896 216.921 245.204C216.803 245.509 216.744 245.866 216.744 246.273Z" fill="black"/>
<path d="M326.588 241.727H327.639L330.111 247.764H330.196L332.668 241.727H333.719V249H332.895V243.474H332.824L330.551 249H329.756L327.483 243.474H327.412V249H326.588V241.727ZM336.976 249.128C336.63 249.128 336.317 249.063 336.035 248.933C335.753 248.8 335.529 248.609 335.364 248.361C335.198 248.11 335.115 247.807 335.115 247.452C335.115 247.139 335.177 246.886 335.3 246.692C335.423 246.495 335.587 246.341 335.793 246.23C335.999 246.119 336.227 246.036 336.475 245.982C336.726 245.925 336.978 245.88 337.232 245.847C337.563 245.804 337.832 245.772 338.038 245.751C338.246 245.727 338.398 245.688 338.492 245.634C338.589 245.579 338.638 245.484 338.638 245.349V245.321C338.638 244.971 338.542 244.698 338.35 244.504C338.161 244.31 337.873 244.213 337.487 244.213C337.087 244.213 336.774 244.301 336.546 244.476C336.319 244.651 336.159 244.838 336.067 245.037L335.271 244.753C335.413 244.421 335.603 244.163 335.84 243.979C336.079 243.792 336.339 243.661 336.621 243.588C336.905 243.512 337.184 243.474 337.459 243.474C337.634 243.474 337.835 243.496 338.063 243.538C338.292 243.579 338.514 243.663 338.727 243.79C338.942 243.918 339.121 244.111 339.263 244.369C339.405 244.627 339.476 244.973 339.476 245.406V249H338.638V248.261H338.595C338.538 248.38 338.444 248.506 338.311 248.641C338.179 248.776 338.002 248.891 337.782 248.986C337.562 249.08 337.293 249.128 336.976 249.128ZM337.104 248.375C337.435 248.375 337.715 248.31 337.942 248.18C338.172 248.049 338.344 247.881 338.46 247.675C338.579 247.469 338.638 247.253 338.638 247.026V246.259C338.602 246.301 338.524 246.34 338.404 246.376C338.285 246.409 338.148 246.438 337.992 246.464C337.838 246.488 337.687 246.509 337.541 246.528C337.396 246.545 337.279 246.559 337.189 246.571C336.971 246.599 336.768 246.646 336.578 246.71C336.391 246.771 336.24 246.865 336.124 246.99C336.01 247.113 335.953 247.281 335.953 247.494C335.953 247.786 336.061 248.006 336.276 248.155C336.494 248.302 336.77 248.375 337.104 248.375ZM341.006 249V243.545H341.815V244.369H341.872C341.972 244.099 342.151 243.88 342.412 243.712C342.672 243.544 342.966 243.46 343.293 243.46C343.354 243.46 343.431 243.461 343.523 243.464C343.616 243.466 343.686 243.47 343.733 243.474V244.327C343.704 244.32 343.639 244.309 343.538 244.295C343.438 244.278 343.333 244.27 343.222 244.27C342.956 244.27 342.72 244.326 342.511 244.437C342.305 244.546 342.142 244.697 342.021 244.891C341.903 245.083 341.844 245.302 341.844 245.548V249H341.006Z" fill="black"/>
<path d="M450.06 249H449.136L451.807 241.727H452.716L455.386 249H454.463L452.29 242.878H452.233L450.06 249ZM450.4 246.159H454.122V246.94H450.4V246.159ZM456.405 251.045V243.545H457.215V244.412H457.314C457.376 244.317 457.461 244.196 457.57 244.05C457.681 243.901 457.84 243.768 458.046 243.652C458.254 243.534 458.536 243.474 458.891 243.474C459.35 243.474 459.755 243.589 460.106 243.819C460.456 244.049 460.729 244.374 460.926 244.795C461.122 245.217 461.221 245.714 461.221 246.287C461.221 246.865 461.122 247.365 460.926 247.789C460.729 248.21 460.457 248.537 460.109 248.769C459.761 248.999 459.36 249.114 458.905 249.114C458.555 249.114 458.274 249.056 458.064 248.94C457.853 248.821 457.691 248.687 457.577 248.538C457.464 248.387 457.376 248.261 457.314 248.162H457.243V251.045H456.405ZM457.229 246.273C457.229 246.685 457.29 247.048 457.41 247.363C457.531 247.675 457.707 247.92 457.939 248.098C458.171 248.273 458.456 248.361 458.792 248.361C459.142 248.361 459.435 248.268 459.669 248.084C459.906 247.897 460.083 247.646 460.202 247.331C460.322 247.014 460.383 246.661 460.383 246.273C460.383 245.889 460.323 245.544 460.205 245.236C460.089 244.926 459.913 244.681 459.676 244.501C459.442 244.318 459.147 244.227 458.792 244.227C458.451 244.227 458.164 244.314 457.932 244.487C457.7 244.657 457.525 244.896 457.407 245.204C457.288 245.509 457.229 245.866 457.229 246.273ZM462.499 249V243.545H463.309V244.369H463.366C463.465 244.099 463.645 243.88 463.905 243.712C464.166 243.544 464.459 243.46 464.786 243.46C464.848 243.46 464.925 243.461 465.017 243.464C465.109 243.466 465.179 243.47 465.226 243.474V244.327C465.198 244.32 465.133 244.309 465.031 244.295C464.932 244.278 464.826 244.27 464.715 244.27C464.45 244.27 464.213 244.326 464.005 244.437C463.799 244.546 463.636 244.697 463.515 244.891C463.396 245.083 463.337 245.302 463.337 245.548V249H462.499Z" fill="black"/>
<path d="M571.928 241.727H572.98L575.451 247.764H575.536L578.008 241.727H579.059V249H578.235V243.474H578.164L575.892 249H575.096L572.823 243.474H572.752V249H571.928V241.727ZM582.316 249.128C581.971 249.128 581.657 249.063 581.375 248.933C581.094 248.8 580.87 248.609 580.704 248.361C580.538 248.11 580.456 247.807 580.456 247.452C580.456 247.139 580.517 246.886 580.64 246.692C580.763 246.495 580.928 246.341 581.134 246.23C581.34 246.119 581.567 246.036 581.816 245.982C582.067 245.925 582.319 245.88 582.572 245.847C582.904 245.804 583.172 245.772 583.378 245.751C583.587 245.727 583.738 245.688 583.833 245.634C583.93 245.579 583.978 245.484 583.978 245.349V245.321C583.978 244.971 583.882 244.698 583.691 244.504C583.501 244.31 583.214 244.213 582.828 244.213C582.428 244.213 582.114 244.301 581.887 244.476C581.659 244.651 581.5 244.838 581.407 245.037L580.612 244.753C580.754 244.421 580.943 244.163 581.18 243.979C581.419 243.792 581.68 243.661 581.961 243.588C582.245 243.512 582.525 243.474 582.799 243.474C582.975 243.474 583.176 243.496 583.403 243.538C583.633 243.579 583.854 243.663 584.067 243.79C584.283 243.918 584.461 244.111 584.603 244.369C584.745 244.627 584.816 244.973 584.816 245.406V249H583.978V248.261H583.936C583.879 248.38 583.784 248.506 583.652 248.641C583.519 248.776 583.343 248.891 583.123 248.986C582.902 249.08 582.634 249.128 582.316 249.128ZM582.444 248.375C582.776 248.375 583.055 248.31 583.282 248.18C583.512 248.049 583.685 247.881 583.801 247.675C583.919 247.469 583.978 247.253 583.978 247.026V246.259C583.943 246.301 583.865 246.34 583.744 246.376C583.626 246.409 583.488 246.438 583.332 246.464C583.178 246.488 583.028 246.509 582.881 246.528C582.737 246.545 582.619 246.559 582.529 246.571C582.312 246.599 582.108 246.646 581.919 246.71C581.732 246.771 581.58 246.865 581.464 246.99C581.351 247.113 581.294 247.281 581.294 247.494C581.294 247.786 581.401 248.006 581.617 248.155C581.835 248.302 582.11 248.375 582.444 248.375ZM586.346 249V243.545H587.184V249H586.346ZM586.772 242.636C586.609 242.636 586.468 242.581 586.35 242.469C586.234 242.358 586.176 242.224 586.176 242.068C586.176 241.912 586.234 241.778 586.35 241.667C586.468 241.556 586.609 241.5 586.772 241.5C586.936 241.5 587.075 241.556 587.191 241.667C587.31 241.778 587.369 241.912 587.369 242.068C587.369 242.224 587.31 242.358 587.191 242.469C587.075 242.581 586.936 242.636 586.772 242.636Z" fill="black"/>
<path d="M696.953 241.727H697.834V246.926C697.834 247.39 697.749 247.784 697.578 248.109C697.408 248.433 697.168 248.679 696.857 248.847C696.547 249.015 696.181 249.099 695.76 249.099C695.362 249.099 695.008 249.027 694.698 248.883C694.388 248.736 694.144 248.528 693.967 248.258C693.789 247.988 693.7 247.667 693.7 247.295H694.567C694.567 247.501 694.618 247.681 694.72 247.835C694.824 247.987 694.966 248.105 695.146 248.19C695.326 248.276 695.53 248.318 695.76 248.318C696.013 248.318 696.229 248.265 696.406 248.158C696.584 248.052 696.719 247.896 696.811 247.69C696.906 247.481 696.953 247.227 696.953 246.926V241.727ZM702.923 246.77V243.545H703.761V249H702.923V248.077H702.866C702.738 248.354 702.539 248.589 702.269 248.783C701.999 248.975 701.659 249.071 701.247 249.071C700.906 249.071 700.603 248.996 700.337 248.847C700.072 248.696 699.864 248.469 699.712 248.165C699.561 247.86 699.485 247.475 699.485 247.011V243.545H700.323V246.955C700.323 247.352 700.435 247.67 700.657 247.906C700.882 248.143 701.168 248.261 701.516 248.261C701.725 248.261 701.937 248.208 702.152 248.102C702.37 247.995 702.552 247.832 702.699 247.612C702.848 247.391 702.923 247.111 702.923 246.77ZM706.134 245.719V249H705.296V243.545H706.105V244.398H706.176C706.304 244.121 706.498 243.898 706.759 243.73C707.019 243.56 707.355 243.474 707.767 243.474C708.137 243.474 708.46 243.55 708.737 243.702C709.014 243.851 709.229 244.078 709.383 244.384C709.537 244.687 709.614 245.07 709.614 245.534V249H708.776V245.591C708.776 245.162 708.665 244.829 708.442 244.589C708.22 244.348 707.914 244.227 707.526 244.227C707.258 244.227 707.019 244.285 706.809 244.401C706.6 244.517 706.436 244.687 706.315 244.909C706.194 245.132 706.134 245.402 706.134 245.719Z" fill="black"/>
</g>
</g>
<defs>
<clipPath id="clip0_54_2614">
<rect width="763" height="251" fill="white"/>
</clipPath>
<clipPath id="clip1_54_2614">
<rect width="734" height="251" fill="white" transform="translate(29)"/>
</clipPath>
</defs>
</svg>
