<svg width="330" height="330" viewBox="0 0 330 330" fill="none" xmlns="http://www.w3.org/2000/svg">
<path d="M165 0C132.366 0 100.465 9.67708 73.331 27.8075C46.1969 45.9379 25.0484 71.7074 12.5599 101.857C0.0714919 132.007 -3.19606 165.183 3.1705 197.19C9.53706 229.197 25.2518 258.597 48.3274 281.673C71.4031 304.748 100.803 320.463 132.81 326.829C164.817 333.196 197.993 329.928 228.143 317.44C258.293 304.952 284.062 283.803 302.192 256.669C320.323 229.535 330 197.634 330 165C329.954 121.253 312.555 79.3119 281.622 48.3784C250.688 17.4449 208.747 0.0461971 165 0ZM165 304.615C137.387 304.615 110.394 296.427 87.4339 281.086C64.4743 265.745 46.5794 243.94 36.0123 218.428C25.4451 192.917 22.6803 164.845 28.0674 137.762C33.4544 110.68 46.7515 85.8026 66.2771 66.277C85.8026 46.7514 110.68 33.4544 137.762 28.0673C164.845 22.6802 192.917 25.445 218.429 36.0122C243.94 46.5793 265.745 64.4742 281.086 87.4338C296.427 110.393 304.615 137.387 304.615 165C304.573 202.015 289.85 237.503 263.677 263.677C237.503 289.85 202.015 304.573 165 304.615ZM228.462 196.731C228.462 208.512 223.781 219.812 215.45 228.143C207.119 236.474 195.82 241.154 184.038 241.154H177.692V253.846C177.692 257.212 176.355 260.441 173.975 262.821C171.595 265.201 168.366 266.538 165 266.538C161.634 266.538 158.405 265.201 156.025 262.821C153.645 260.441 152.308 257.212 152.308 253.846V241.154H126.923C123.557 241.154 120.329 239.817 117.948 237.436C115.568 235.056 114.231 231.828 114.231 228.461C114.231 225.095 115.568 221.867 117.948 219.487C120.329 217.106 123.557 215.769 126.923 215.769H184.038C189.088 215.769 193.93 213.763 197.501 210.193C201.071 206.623 203.077 201.78 203.077 196.731C203.077 191.681 201.071 186.839 197.501 183.269C193.93 179.698 189.088 177.692 184.038 177.692H145.962C134.18 177.692 122.881 173.012 114.55 164.681C106.219 156.35 101.539 145.051 101.539 133.269C101.539 121.487 106.219 110.188 114.55 101.857C122.881 93.5264 134.18 88.8461 145.962 88.8461H152.308V76.1538C152.308 72.7876 153.645 69.5593 156.025 67.179C158.405 64.7987 161.634 63.4615 165 63.4615C168.366 63.4615 171.595 64.7987 173.975 67.179C176.355 69.5593 177.692 72.7876 177.692 76.1538V88.8461H203.077C206.443 88.8461 209.672 90.1834 212.052 92.5636C214.432 94.9439 215.769 98.1722 215.769 101.538C215.769 104.905 214.432 108.133 212.052 110.513C209.672 112.894 206.443 114.231 203.077 114.231H145.962C140.912 114.231 136.07 116.237 132.499 119.807C128.929 123.377 126.923 128.22 126.923 133.269C126.923 138.319 128.929 143.161 132.499 146.731C136.07 150.302 140.912 152.308 145.962 152.308H184.038C195.82 152.308 207.119 156.988 215.45 165.319C223.781 173.65 228.462 184.949 228.462 196.731Z" fill="#E1D4C2"/>
</svg>
