<svg width="100" height="100" viewBox="0 0 100 100" fill="none" xmlns="http://www.w3.org/2000/svg">
<path fill-rule="evenodd" clip-rule="evenodd" d="M20.954 0.45965C14.8201 1.60593 18.9488 6.2585 24.0211 7.06764C28.2677 7.74192 36.4068 7.74194 53.9238 7.67451C75.2746 7.60708 84.4165 7.87675 85.7731 8.55103C89.135 10.3042 90.6096 17.047 91.5533 35.32C91.9072 41.7932 92.6148 51.5028 93.1456 56.8971C94.797 74.2261 93.2637 75.9118 73.8593 76.7884C66.3688 77.1255 56.637 77.7997 52.2725 78.2717C31.8654 80.4969 19.1846 80.0922 12.107 76.8557C6.20903 74.1586 6.50405 72.0009 6.32711 67.4832C5.91425 58.7176 6.09113 40.8491 6.85787 24.5989C7.50665 10.9784 8.27333 8.2813 12.107 6.25845C14.4662 5.04475 13.6406 3.62879 10.6916 3.76365C6.26807 4.03336 2.84728 5.71904 2.1985 13.6081C1.37278 23.3178 -3.87662 76.6535 5.56019 81.1712C11.7531 84.138 22.5465 87.0374 26.793 87.0374C29.742 87.0374 29.6242 90.8134 26.6752 91.8249C19.8925 94.05 24.6698 99.4442 33.6348 99.8487C51.8006 100.523 78.3418 98.8374 78.5777 96.882C78.8136 94.9266 74.9799 90.4763 72.9746 90.4763C72.3258 90.4763 71.9128 89.5996 71.9128 88.3185C71.9128 86.4979 71.9128 83.9356 73.7412 83.9356C81.5856 83.9356 85.7731 83.5311 88.1323 82.9242C99.6334 80.0922 100.105 71.1918 99.9873 65.9999C99.5745 44.76 96.0946 24.4641 96.0946 19.6768C96.0356 11.3831 91.7892 3.22422 82.7063 1.7408C79.1675 0.527095 27.029 -0.686628 20.954 0.45965ZM51.7418 41.7257C51.034 40.8492 44.1923 32.1509 42.3049 29.9258C39.9457 27.1612 37.5274 28.0377 32.4552 33.3645C29.86 36.1291 25.7905 40.2423 23.3723 42.6023C14.9971 50.6937 14.3483 54.3348 21.2489 54.3348C23.6082 54.3348 24.7289 53.3907 31.7476 45.1645C40.8305 34.5108 40.0047 34.5783 47.9081 43.3439C53.2163 49.2102 52.5675 49.2777 61.1786 41.5909C68.6101 33.7018 72.8566 28.4423 78.2238 22.3064C83.532 16.2379 75.3926 13.4733 71.0871 17.6538C66.0148 22.4412 51.8007 41.6583 51.7418 41.7257ZM70.8512 38.5566C69.7896 41.6583 70.3205 62.3587 71.5001 63.6399C74.3901 66.9438 76.1596 59.8638 75.9826 45.8387C75.8647 38.0845 72.5617 33.4321 70.8512 38.5566ZM36.7018 46.9851C34.8735 52.5143 36.4068 67.6182 40.1226 66.8764C43.8383 66.1347 41.3022 49.4799 40.4765 47.0525C39.9457 45.2993 37.2916 45.232 36.7018 46.9851ZM60.7066 48.5359C59.7039 49.9519 58.7013 60.4033 59.3501 63.2352C60.4707 68.2923 65.1301 66.0673 65.1301 60.4708C65.1301 51.0983 63.0068 45.3667 60.7066 48.5359ZM27.147 55.7508C26.2623 56.7622 26.6161 64.3141 27.6777 65.9324C29.5651 68.8992 31.2165 67.0113 31.2165 61.8193C31.1575 56.4251 29.1523 53.3908 27.147 55.7508ZM47.4951 55.7508C45.9616 57.5039 47.0232 64.7186 48.9105 65.73C51.9185 67.2809 52.9213 63.0329 51.0929 56.2901C50.798 55.0764 48.3798 54.7394 47.4951 55.7508ZM62.7121 85.082C65.0713 85.8238 64.1865 88.2512 64.4225 90.4763L37.1736 91.0156C37.1736 90.8133 37.6456 85.4865 37.6456 85.8237C39.5329 85.7562 56.8141 84.9472 59.1733 84.7449C60.117 84.6101 61.7684 84.8123 62.7121 85.082Z" fill="#E4D8C8"/>
</svg>
