<svg width="462" height="428" viewBox="0 0 462 428" fill="none" xmlns="http://www.w3.org/2000/svg">
<path d="M454.023 238.72L366.532 174.535L454.023 110.35C456.214 108.744 458.004 106.599 459.241 104.099C460.478 101.598 461.125 98.8172 461.125 95.9941C461.125 93.171 460.478 90.39 459.241 87.8896C458.004 85.3893 456.214 83.2443 454.023 81.6386L346.976 3.09781C344.223 1.08057 340.956 0 337.609 0C334.262 0 330.995 1.08057 328.243 3.09781L230.562 74.7663L132.882 3.09781C130.129 1.08057 126.862 0 123.515 0C120.169 0 116.901 1.08057 114.149 3.09781L7.1019 81.6386C4.91088 83.2443 3.12009 85.3893 1.88314 87.8896C0.64619 90.39 0 93.171 0 95.9941C0 98.8172 0.64619 101.598 1.88314 104.099C3.12009 106.599 4.91088 108.744 7.1019 110.35L94.6951 174.535L7.20483 238.72C5.01381 240.326 3.22302 242.471 1.98607 244.971C0.749122 247.472 0.102932 250.253 0.102932 253.076C0.102932 255.899 0.749122 258.68 1.98607 261.18C3.22302 263.68 5.01381 265.825 7.20483 267.431L114.252 345.972C117.004 347.989 120.272 349.07 123.618 349.07C126.965 349.07 130.232 347.989 132.985 345.972L230.562 274.303L328.243 345.972C330.995 347.989 334.262 349.07 337.609 349.07C340.956 349.07 344.223 347.989 346.976 345.972L454.023 267.431C456.214 265.825 458.004 263.68 459.241 261.18C460.478 258.68 461.125 255.899 461.125 253.076C461.125 250.253 460.478 247.472 459.241 244.971C458.004 242.471 456.214 240.326 454.023 238.72ZM230.562 231.848L152.439 174.535L230.665 117.222L308.789 174.535L230.562 231.848ZM337.609 38.6812L415.836 95.9941L337.609 153.307L259.486 95.9941L337.609 38.6812ZM123.515 38.6812L201.742 95.9941L123.515 153.307L45.3917 95.9941L123.515 38.6812ZM123.515 310.389L45.3917 253.076L123.618 195.763L201.742 253.076L123.515 310.389ZM337.609 310.389L259.486 253.076L337.609 195.763L415.836 253.076L337.609 310.389ZM293.288 364.145C295.778 367.945 296.743 372.637 295.971 377.19C295.199 381.743 292.753 385.785 289.17 388.428L239.991 424.513C237.238 426.53 233.971 427.611 230.624 427.611C227.277 427.611 224.01 426.53 221.257 424.513L172.016 388.34C168.443 385.699 166.004 381.665 165.231 377.122C164.458 372.579 165.415 367.896 167.893 364.099C170.37 360.302 174.166 357.7 178.45 356.862C182.734 356.025 187.156 357.019 190.749 359.629L230.562 388.929L270.375 359.717C273.968 357.084 278.4 356.071 282.697 356.902C286.994 357.733 290.803 360.338 293.288 364.145Z" fill="#291C0E"/>
</svg>
