<svg width="330" height="330" viewBox="0 0 330 330" fill="none" xmlns="http://www.w3.org/2000/svg">
<path d="M329.957 178.882C327.259 210.249 315.658 240.193 296.52 265.191C277.382 290.189 251.502 309.201 221.926 319.991C192.35 330.78 160.307 332.898 129.568 326.095C98.8287 319.292 70.6719 303.852 48.4101 281.59C26.1484 259.328 10.7077 231.171 3.90483 200.432C-2.89809 169.693 -0.780264 137.65 10.0091 108.074C20.7985 78.4978 39.8106 52.6181 64.8087 33.4799C89.8067 14.3418 119.751 2.74122 151.118 0.0431453C152.786 -0.0944405 154.464 0.0977989 156.057 0.60889C157.651 1.11998 159.128 1.93991 160.404 3.02187C161.681 4.10383 162.732 5.42663 163.497 6.91474C164.263 8.40284 164.727 10.0271 164.865 11.6948C165.002 13.3625 164.81 15.041 164.299 16.6344C163.788 18.2278 162.968 19.705 161.886 20.9815C160.804 22.258 159.481 23.309 157.993 24.0743C156.505 24.8396 154.881 25.3043 153.213 25.4419C126.665 27.7229 101.32 37.5391 80.1618 53.7356C59.0031 69.932 42.9105 91.8347 33.7775 116.867C24.6445 141.899 22.8511 169.019 28.6082 195.035C34.3654 221.052 47.4336 244.883 66.2752 263.725C85.1168 282.566 108.948 295.635 134.965 301.392C160.981 307.149 188.101 305.355 213.133 296.223C238.165 287.09 260.068 270.997 276.264 249.838C292.461 228.68 302.277 203.335 304.558 176.787C304.836 173.419 306.44 170.299 309.018 168.114C311.597 165.929 314.937 164.857 318.305 165.135C321.673 165.413 324.793 167.017 326.978 169.595C329.163 172.174 330.235 175.514 329.957 178.882ZM152.166 76.2394V165.135C152.166 168.503 153.503 171.733 155.885 174.115C158.267 176.497 161.497 177.834 164.865 177.834H253.761C257.129 177.834 260.359 176.497 262.74 174.115C265.122 171.733 266.46 168.503 266.46 165.135C266.46 161.767 265.122 158.537 262.74 156.155C260.359 153.774 257.129 152.436 253.761 152.436H177.564V76.2394C177.564 72.8714 176.226 69.6412 173.845 67.2596C171.463 64.878 168.233 63.5401 164.865 63.5401C161.497 63.5401 158.267 64.878 155.885 67.2596C153.503 69.6412 152.166 72.8714 152.166 76.2394ZM215.662 38.1413C219.43 38.1413 223.113 37.0241 226.246 34.9309C229.378 32.8378 231.82 29.8627 233.261 26.382C234.703 22.9012 235.08 19.0711 234.345 15.3759C233.61 11.6808 231.796 8.28655 229.132 5.62249C226.468 2.95843 223.074 1.14418 219.379 0.409169C215.684 -0.325843 211.853 0.0513917 208.373 1.49317C204.892 2.93495 201.917 5.37651 199.824 8.50912C197.731 11.6417 196.613 15.3247 196.613 19.0922C196.613 24.1443 198.62 28.9896 202.193 32.562C205.765 36.1343 210.61 38.1413 215.662 38.1413ZM272.81 76.2394C276.577 76.2394 280.26 75.1222 283.393 73.0291C286.525 70.936 288.967 67.9609 290.409 64.4801C291.85 60.9994 292.228 57.1692 291.493 53.4741C290.758 49.7789 288.943 46.3847 286.279 43.7206C283.615 41.0566 280.221 39.2423 276.526 38.5073C272.831 37.7723 269.001 38.1495 265.52 39.5913C262.039 41.0331 259.064 43.4747 256.971 46.6073C254.878 49.7399 253.761 53.4228 253.761 57.1904C253.761 62.2425 255.768 67.0877 259.34 70.6601C262.912 74.2325 267.758 76.2394 272.81 76.2394ZM310.908 133.387C314.675 133.387 318.358 132.269 321.491 130.176C324.623 128.083 327.065 125.108 328.507 121.627C329.949 118.147 330.326 114.316 329.591 110.621C328.856 106.926 327.042 103.532 324.378 100.868C321.713 98.2038 318.319 96.3895 314.624 95.6545C310.929 94.9195 307.099 95.2968 303.618 96.7385C300.137 98.1803 297.162 100.622 295.069 103.754C292.976 106.887 291.859 110.57 291.859 114.338C291.859 119.39 293.866 124.235 297.438 127.807C301.01 131.38 305.856 133.387 310.908 133.387Z" fill="#E1D4C2"/>
</svg>
