<svg width="531" height="255" viewBox="0 0 531 255" fill="none" xmlns="http://www.w3.org/2000/svg">
<rect width="531" height="255" fill="#E1D4C2"/>
<path d="M10 127.5C10 103.201 18.03 79.5004 32.9843 59.6607C47.9386 39.8211 69.0815 24.8187 93.5016 16.7195C117.922 8.62022 144.418 7.82253 169.341 14.4363C194.265 21.05 216.389 34.7498 232.669 53.6492L203.612 75.6762C192.188 62.4138 176.663 52.8002 159.173 48.1591C141.683 43.518 123.09 44.0777 105.954 49.7612C88.8172 55.4448 73.9804 65.9725 63.4864 79.8947C52.9925 93.8169 47.3575 110.449 47.3575 127.5L10 127.5Z" fill="#BEB5A9"/>
<path d="M232.643 53.619C249.512 73.1897 259.237 97.3248 260.385 122.47C261.534 147.616 254.045 172.443 239.022 193.295C223.999 214.148 202.236 229.924 176.937 238.301C151.638 246.678 124.14 247.213 98.4932 239.826L109.456 206.324C127.454 211.507 146.75 211.131 164.503 205.253C182.257 199.375 197.529 188.304 208.071 173.671C218.613 159.038 223.868 141.616 223.062 123.97C222.256 106.325 215.432 89.3885 203.594 75.655L232.643 53.619Z" fill="#291C0E"/>
<path d="M102.545 240.923C75.562 234.076 51.7964 218.958 35.0307 197.976C18.265 176.993 9.46284 151.353 10.0254 125.135L47.3753 125.841C46.9806 144.238 53.1573 162.231 64.9224 176.955C76.6875 191.68 93.3648 202.288 112.299 207.093L102.545 240.923Z" fill="#6E473B"/>
<path d="M104.05 30.4073C103.562 30.4073 103.126 30.3232 102.743 30.1552C102.362 29.9871 102.06 29.7539 101.837 29.4556C101.617 29.1549 101.499 28.8069 101.482 28.4116H102.597C102.611 28.627 102.684 28.814 102.814 28.9726C102.946 29.1289 103.119 29.2496 103.332 29.3348C103.545 29.4201 103.782 29.4627 104.042 29.4627C104.329 29.4627 104.582 29.413 104.802 29.3135C105.025 29.2141 105.199 29.0756 105.324 28.8981C105.45 28.7181 105.513 28.511 105.513 28.2766C105.513 28.0328 105.45 27.8185 105.324 27.6339C105.201 27.4468 105.02 27.3 104.781 27.1935C104.544 27.087 104.258 27.0337 103.922 27.0337H103.307V26.1388H103.922C104.192 26.1388 104.428 26.0903 104.632 25.9932C104.838 25.8962 104.999 25.7612 105.115 25.5884C105.231 25.4132 105.289 25.2084 105.289 24.9741C105.289 24.7491 105.238 24.5538 105.136 24.3881C105.037 24.22 104.895 24.0886 104.71 23.9939C104.528 23.8992 104.312 23.8519 104.064 23.8519C103.827 23.8519 103.606 23.8957 103.4 23.9833C103.196 24.0685 103.03 24.1916 102.903 24.3526C102.775 24.5112 102.706 24.7018 102.697 24.9243H101.635C101.647 24.5313 101.763 24.1857 101.983 23.8874C102.205 23.5891 102.499 23.3559 102.863 23.1878C103.228 23.0197 103.633 22.9357 104.078 22.9357C104.544 22.9357 104.947 23.0268 105.285 23.2091C105.626 23.3891 105.889 23.6294 106.074 23.93C106.261 24.2307 106.353 24.5598 106.351 24.9172C106.353 25.3244 106.239 25.6701 106.01 25.9542C105.783 26.2383 105.479 26.4288 105.101 26.5259V26.5827C105.584 26.6561 105.958 26.8479 106.223 27.158C106.49 27.4681 106.623 27.8528 106.621 28.3121C106.623 28.7122 106.512 29.0709 106.287 29.3881C106.064 29.7054 105.76 29.9551 105.374 30.1374C104.988 30.3173 104.547 30.4073 104.05 30.4073ZM110.363 30.4073C109.918 30.4073 109.518 30.3221 109.163 30.1516C108.81 29.9788 108.529 29.742 108.318 29.4414C108.107 29.1407 107.995 28.7974 107.981 28.4116H109.046C109.072 28.7241 109.211 28.9809 109.461 29.1822C109.712 29.3834 110.013 29.484 110.363 29.484C110.643 29.484 110.89 29.4201 111.106 29.2922C111.323 29.162 111.494 28.9833 111.617 28.756C111.743 28.5287 111.805 28.2695 111.805 27.9783C111.805 27.6824 111.741 27.4184 111.613 27.1864C111.486 26.9544 111.309 26.7721 111.084 26.6395C110.862 26.507 110.606 26.4395 110.317 26.4371C110.097 26.4371 109.876 26.475 109.653 26.5508C109.431 26.6265 109.251 26.7259 109.113 26.8491L108.109 26.6999L108.517 23.0351H112.515V23.9762H109.43L109.199 26.011H109.241C109.383 25.8737 109.572 25.7589 109.806 25.6665C110.043 25.5742 110.296 25.528 110.566 25.528C111.009 25.528 111.403 25.6334 111.748 25.8441C112.096 26.0548 112.37 26.3424 112.569 26.707C112.77 27.0692 112.869 27.4859 112.867 27.957C112.869 28.4281 112.763 28.8483 112.547 29.2177C112.334 29.587 112.038 29.8782 111.66 30.0912C111.283 30.3019 110.851 30.4073 110.363 30.4073ZM117.96 28.9442V28.5607C117.96 28.2861 118.017 28.0351 118.131 27.8079C118.247 27.5782 118.415 27.3947 118.635 27.2574C118.857 27.1178 119.126 27.0479 119.441 27.0479C119.763 27.0479 120.033 27.1166 120.251 27.2539C120.469 27.3912 120.633 27.5747 120.744 27.8043C120.858 28.034 120.915 28.2861 120.915 28.5607V28.9442C120.915 29.2188 120.858 29.471 120.744 29.7006C120.631 29.9279 120.464 30.1114 120.244 30.251C120.026 30.3884 119.758 30.457 119.441 30.457C119.121 30.457 118.852 30.3884 118.631 30.251C118.411 30.1114 118.244 29.9279 118.131 29.7006C118.017 29.471 117.96 29.2188 117.96 28.9442ZM118.788 28.5607V28.9442C118.788 29.1478 118.836 29.3325 118.933 29.4982C119.03 29.6639 119.2 29.7468 119.441 29.7468C119.68 29.7468 119.847 29.6639 119.942 29.4982C120.036 29.3325 120.084 29.1478 120.084 28.9442V28.5607C120.084 28.3571 120.038 28.1724 119.945 28.0067C119.855 27.841 119.687 27.7581 119.441 27.7581C119.204 27.7581 119.036 27.841 118.937 28.0067C118.837 28.1724 118.788 28.3571 118.788 28.5607ZM114.303 24.7823V24.3988C114.303 24.1241 114.359 23.872 114.473 23.6424C114.589 23.4127 114.757 23.2293 114.977 23.092C115.2 22.9546 115.469 22.886 115.783 22.886C116.105 22.886 116.375 22.9546 116.593 23.092C116.811 23.2293 116.975 23.4127 117.087 23.6424C117.198 23.872 117.254 24.1241 117.254 24.3988V24.7823C117.254 25.0569 117.197 25.309 117.083 25.5387C116.972 25.766 116.806 25.9494 116.586 26.0891C116.368 26.2264 116.101 26.2951 115.783 26.2951C115.461 26.2951 115.19 26.2264 114.97 26.0891C114.752 25.9494 114.587 25.766 114.473 25.5387C114.359 25.309 114.303 25.0569 114.303 24.7823ZM115.134 24.3988V24.7823C115.134 24.9859 115.181 25.1706 115.276 25.3363C115.373 25.502 115.542 25.5848 115.783 25.5848C116.02 25.5848 116.186 25.502 116.281 25.3363C116.378 25.1706 116.426 24.9859 116.426 24.7823V24.3988C116.426 24.1952 116.38 24.0105 116.288 23.8448C116.195 23.6791 116.027 23.5962 115.783 23.5962C115.547 23.5962 115.379 23.6791 115.279 23.8448C115.182 24.0105 115.134 24.1952 115.134 24.3988ZM114.64 30.3079L119.64 23.0351H120.489L115.489 30.3079H114.64Z" fill="white"/>
<path d="M217.448 185.018C217.002 185.018 216.602 184.932 216.247 184.762C215.895 184.589 215.613 184.352 215.402 184.052C215.191 183.751 215.079 183.408 215.065 183.022H216.13C216.156 183.334 216.295 183.591 216.546 183.793C216.797 183.994 217.097 184.094 217.448 184.094C217.727 184.094 217.974 184.03 218.19 183.903C218.408 183.772 218.578 183.594 218.701 183.366C218.827 183.139 218.889 182.88 218.889 182.589C218.889 182.293 218.825 182.029 218.698 181.797C218.57 181.565 218.393 181.382 218.168 181.25C217.946 181.117 217.69 181.05 217.401 181.047C217.181 181.047 216.96 181.085 216.737 181.161C216.515 181.237 216.335 181.336 216.198 181.459L215.193 181.31L215.601 177.645H219.6V178.587H216.514L216.283 180.621H216.325C216.467 180.484 216.656 180.369 216.89 180.277C217.127 180.185 217.38 180.138 217.65 180.138C218.093 180.138 218.487 180.244 218.832 180.454C219.181 180.665 219.454 180.953 219.653 181.317C219.854 181.68 219.953 182.096 219.951 182.567C219.953 183.038 219.847 183.459 219.632 183.828C219.418 184.197 219.123 184.489 218.744 184.702C218.367 184.912 217.935 185.018 217.448 185.018ZM223.78 185.039C223.219 185.037 222.74 184.889 222.342 184.595C221.944 184.301 221.64 183.874 221.429 183.313C221.219 182.752 221.113 182.076 221.113 181.285C221.113 180.497 221.219 179.824 221.429 179.265C221.642 178.706 221.948 178.28 222.345 177.986C222.746 177.693 223.224 177.546 223.78 177.546C224.336 177.546 224.813 177.694 225.211 177.99C225.609 178.284 225.913 178.71 226.124 179.268C226.337 179.825 226.443 180.497 226.443 181.285C226.443 182.078 226.338 182.756 226.127 183.317C225.917 183.875 225.613 184.303 225.215 184.599C224.817 184.892 224.339 185.039 223.78 185.039ZM223.78 184.091C224.273 184.091 224.657 183.851 224.934 183.37C225.214 182.889 225.353 182.194 225.353 181.285C225.353 180.682 225.289 180.172 225.162 179.755C225.036 179.336 224.855 179.019 224.618 178.803C224.384 178.585 224.104 178.476 223.78 178.476C223.29 178.476 222.905 178.718 222.626 179.201C222.347 179.684 222.206 180.379 222.203 181.285C222.203 181.891 222.266 182.404 222.392 182.823C222.519 183.24 222.701 183.556 222.935 183.771C223.169 183.984 223.451 184.091 223.78 184.091ZM231.499 183.555V183.171C231.499 182.896 231.556 182.645 231.67 182.418C231.786 182.189 231.954 182.005 232.174 181.868C232.397 181.728 232.665 181.658 232.98 181.658C233.302 181.658 233.572 181.727 233.79 181.864C234.008 182.002 234.172 182.185 234.283 182.415C234.397 182.644 234.454 182.896 234.454 183.171V183.555C234.454 183.829 234.397 184.081 234.283 184.311C234.17 184.538 234.003 184.722 233.783 184.861C233.565 184.999 233.297 185.067 232.98 185.067C232.661 185.067 232.391 184.999 232.171 184.861C231.95 184.722 231.783 184.538 231.67 184.311C231.556 184.081 231.499 183.829 231.499 183.555ZM232.327 183.171V183.555C232.327 183.758 232.375 183.943 232.472 184.109C232.569 184.274 232.739 184.357 232.98 184.357C233.219 184.357 233.386 184.274 233.481 184.109C233.576 183.943 233.623 183.758 233.623 183.555V183.171C233.623 182.967 233.577 182.783 233.484 182.617C233.395 182.451 233.226 182.368 232.98 182.368C232.743 182.368 232.575 182.451 232.476 182.617C232.377 182.783 232.327 182.967 232.327 183.171ZM227.842 179.393V179.009C227.842 178.735 227.899 178.482 228.012 178.253C228.128 178.023 228.296 177.84 228.516 177.702C228.739 177.565 229.008 177.496 229.323 177.496C229.645 177.496 229.914 177.565 230.132 177.702C230.35 177.84 230.515 178.023 230.626 178.253C230.737 178.482 230.793 178.735 230.793 179.009V179.393C230.793 179.667 230.736 179.919 230.622 180.149C230.511 180.376 230.345 180.56 230.125 180.699C229.907 180.837 229.64 180.905 229.323 180.905C229.001 180.905 228.73 180.837 228.509 180.699C228.292 180.56 228.126 180.376 228.012 180.149C227.899 179.919 227.842 179.667 227.842 179.393ZM228.673 179.009V179.393C228.673 179.596 228.72 179.781 228.815 179.947C228.912 180.112 229.081 180.195 229.323 180.195C229.559 180.195 229.725 180.112 229.82 179.947C229.917 179.781 229.965 179.596 229.965 179.393V179.009C229.965 178.806 229.919 178.621 229.827 178.455C229.734 178.289 229.566 178.207 229.323 178.207C229.086 178.207 228.918 178.289 228.818 178.455C228.721 178.621 228.673 178.806 228.673 179.009ZM228.179 184.918L233.179 177.645H234.028L229.028 184.918H228.179Z" fill="white"/>
<path d="M44.7062 177.645V184.918H43.6054V178.746H43.5628L41.8227 179.883V178.832L43.6373 177.645H44.7062ZM49.0741 185.018C48.6291 185.018 48.229 184.932 47.8739 184.762C47.5211 184.589 47.2394 184.352 47.0287 184.052C46.818 183.751 46.7055 183.408 46.6913 183.022H47.7567C47.7827 183.334 47.9212 183.591 48.1722 183.793C48.4231 183.994 48.7238 184.094 49.0741 184.094C49.3535 184.094 49.6009 184.03 49.8163 183.903C50.0341 183.772 50.2046 183.594 50.3277 183.366C50.4532 183.139 50.5159 182.88 50.5159 182.589C50.5159 182.293 50.452 182.029 50.3241 181.797C50.1963 181.565 50.0199 181.382 49.795 181.25C49.5725 181.117 49.3168 181.05 49.028 181.047C48.8078 181.047 48.5864 181.085 48.3639 181.161C48.1414 181.237 47.9614 181.336 47.8241 181.459L46.8192 181.31L47.2275 177.645H51.2261V178.587H48.1402L47.9094 180.621H47.952C48.094 180.484 48.2822 180.369 48.5166 180.277C48.7534 180.185 49.0067 180.138 49.2766 180.138C49.7193 180.138 50.1134 180.244 50.4591 180.454C50.8071 180.665 51.0805 180.953 51.2794 181.317C51.4806 181.68 51.5801 182.096 51.5777 182.567C51.5801 183.038 51.4735 183.459 51.2581 183.828C51.045 184.197 50.7491 184.489 50.3703 184.702C49.9939 184.912 49.5618 185.018 49.0741 185.018ZM56.6709 183.555V183.171C56.6709 182.896 56.7277 182.645 56.8414 182.418C56.9574 182.189 57.1255 182.005 57.3456 181.868C57.5682 181.728 57.8369 181.658 58.1517 181.658C58.4737 181.658 58.7436 181.727 58.9614 181.864C59.1792 182.002 59.3437 182.185 59.455 182.415C59.5686 182.644 59.6255 182.896 59.6255 183.171V183.555C59.6255 183.829 59.5686 184.081 59.455 184.311C59.3414 184.538 59.1745 184.722 58.9543 184.861C58.7365 184.999 58.469 185.067 58.1517 185.067C57.8321 185.067 57.5622 184.999 57.3421 184.861C57.1219 184.722 56.955 184.538 56.8414 184.311C56.7277 184.081 56.6709 183.829 56.6709 183.555ZM57.4983 183.171V183.555C57.4983 183.758 57.5469 183.943 57.6439 184.109C57.741 184.274 57.9103 184.357 58.1517 184.357C58.3908 184.357 58.5577 184.274 58.6524 184.109C58.7471 183.943 58.7945 183.758 58.7945 183.555V183.171C58.7945 182.967 58.7483 182.783 58.656 182.617C58.566 182.451 58.3979 182.368 58.1517 182.368C57.915 182.368 57.7469 182.451 57.6475 182.617C57.548 182.783 57.4983 182.967 57.4983 183.171ZM53.0132 179.393V179.009C53.0132 178.735 53.0701 178.482 53.1837 178.253C53.2997 178.023 53.4678 177.84 53.688 177.702C53.9105 177.565 54.1792 177.496 54.4941 177.496C54.816 177.496 55.0859 177.565 55.3037 177.702C55.5215 177.84 55.6861 178.023 55.7973 178.253C55.9086 178.482 55.9642 178.735 55.9642 179.009V179.393C55.9642 179.667 55.9074 179.919 55.7938 180.149C55.6825 180.376 55.5168 180.56 55.2966 180.699C55.0788 180.837 54.8113 180.905 54.4941 180.905C54.1721 180.905 53.901 180.837 53.6809 180.699C53.463 180.56 53.2973 180.376 53.1837 180.149C53.0701 179.919 53.0132 179.667 53.0132 179.393ZM53.8442 179.009V179.393C53.8442 179.596 53.8916 179.781 53.9862 179.947C54.0833 180.112 54.2526 180.195 54.4941 180.195C54.7308 180.195 54.8965 180.112 54.9912 179.947C55.0883 179.781 55.1368 179.596 55.1368 179.393V179.009C55.1368 178.806 55.0907 178.621 54.9983 178.455C54.906 178.289 54.7379 178.207 54.4941 178.207C54.2573 178.207 54.0892 178.289 53.9898 178.455C53.8927 178.621 53.8442 178.806 53.8442 179.009ZM53.3506 184.918L58.3506 177.645H59.1993L54.1993 184.918H53.3506Z" fill="white"/>
<g clip-path="url(#clip0_54_2930)">
<circle cx="371.25" cy="103.5" r="4" fill="#291C0E"/>
<path d="M379.694 103.312C379.694 102.496 379.882 101.764 380.258 101.116C380.642 100.468 381.158 99.964 381.806 99.604C382.462 99.236 383.178 99.052 383.954 99.052C384.842 99.052 385.63 99.272 386.318 99.712C387.014 100.144 387.518 100.76 387.83 101.56H386.186C385.97 101.12 385.67 100.792 385.286 100.576C384.902 100.36 384.458 100.252 383.954 100.252C383.402 100.252 382.91 100.376 382.478 100.624C382.046 100.872 381.706 101.228 381.458 101.692C381.218 102.156 381.098 102.696 381.098 103.312C381.098 103.928 381.218 104.468 381.458 104.932C381.706 105.396 382.046 105.756 382.478 106.012C382.91 106.26 383.402 106.384 383.954 106.384C384.458 106.384 384.902 106.276 385.286 106.06C385.67 105.844 385.97 105.516 386.186 105.076H387.83C387.518 105.876 387.014 106.492 386.318 106.924C385.63 107.356 384.842 107.572 383.954 107.572C383.17 107.572 382.454 107.392 381.806 107.032C381.158 106.664 380.642 106.156 380.258 105.508C379.882 104.86 379.694 104.128 379.694 103.312ZM392.299 107.608C391.675 107.608 391.111 107.468 390.607 107.188C390.103 106.9 389.707 106.5 389.419 105.988C389.131 105.468 388.987 104.868 388.987 104.188C388.987 103.516 389.135 102.92 389.431 102.4C389.727 101.88 390.131 101.48 390.643 101.2C391.155 100.92 391.727 100.78 392.359 100.78C392.991 100.78 393.563 100.92 394.075 101.2C394.587 101.48 394.991 101.88 395.287 102.4C395.583 102.92 395.731 103.516 395.731 104.188C395.731 104.86 395.579 105.456 395.275 105.976C394.971 106.496 394.555 106.9 394.027 107.188C393.507 107.468 392.931 107.608 392.299 107.608ZM392.299 106.42C392.651 106.42 392.979 106.336 393.283 106.168C393.595 106 393.847 105.748 394.039 105.412C394.231 105.076 394.327 104.668 394.327 104.188C394.327 103.708 394.235 103.304 394.051 102.976C393.867 102.64 393.623 102.388 393.319 102.22C393.015 102.052 392.687 101.968 392.335 101.968C391.983 101.968 391.655 102.052 391.351 102.22C391.055 102.388 390.819 102.64 390.643 102.976C390.467 103.304 390.379 103.708 390.379 104.188C390.379 104.9 390.559 105.452 390.919 105.844C391.287 106.228 391.747 106.42 392.299 106.42ZM400.42 100.78C400.94 100.78 401.404 100.888 401.812 101.104C402.228 101.32 402.552 101.64 402.784 102.064C403.016 102.488 403.132 103 403.132 103.6V107.5H401.776V103.804C401.776 103.212 401.628 102.76 401.332 102.448C401.036 102.128 400.632 101.968 400.12 101.968C399.608 101.968 399.2 102.128 398.896 102.448C398.6 102.76 398.452 103.212 398.452 103.804V107.5H397.084V100.888H398.452V101.644C398.676 101.372 398.96 101.16 399.304 101.008C399.656 100.856 400.028 100.78 400.42 100.78ZM406.473 102.004V105.664C406.473 105.912 406.529 106.092 406.641 106.204C406.761 106.308 406.961 106.36 407.241 106.36H408.081V107.5H407.001C406.385 107.5 405.913 107.356 405.585 107.068C405.257 106.78 405.093 106.312 405.093 105.664V102.004H404.313V100.888H405.093V99.244H406.473V100.888H408.081V102.004H406.473ZM415.401 104.032C415.401 104.28 415.385 104.504 415.353 104.704H410.301C410.341 105.232 410.537 105.656 410.889 105.976C411.241 106.296 411.673 106.456 412.185 106.456C412.921 106.456 413.441 106.148 413.745 105.532H415.221C415.021 106.14 414.657 106.64 414.129 107.032C413.609 107.416 412.961 107.608 412.185 107.608C411.553 107.608 410.985 107.468 410.481 107.188C409.985 106.9 409.593 106.5 409.305 105.988C409.025 105.468 408.885 104.868 408.885 104.188C408.885 103.508 409.021 102.912 409.293 102.4C409.573 101.88 409.961 101.48 410.457 101.2C410.961 100.92 411.537 100.78 412.185 100.78C412.809 100.78 413.365 100.916 413.853 101.188C414.341 101.46 414.721 101.844 414.993 102.34C415.265 102.828 415.401 103.392 415.401 104.032ZM413.973 103.6C413.965 103.096 413.785 102.692 413.433 102.388C413.081 102.084 412.645 101.932 412.125 101.932C411.653 101.932 411.249 102.084 410.913 102.388C410.577 102.684 410.377 103.088 410.313 103.6H413.973ZM420.084 100.78C420.604 100.78 421.068 100.888 421.476 101.104C421.892 101.32 422.216 101.64 422.448 102.064C422.68 102.488 422.796 103 422.796 103.6V107.5H421.44V103.804C421.44 103.212 421.292 102.76 420.996 102.448C420.7 102.128 420.296 101.968 419.784 101.968C419.272 101.968 418.864 102.128 418.56 102.448C418.264 102.76 418.116 103.212 418.116 103.804V107.5H416.748V100.888H418.116V101.644C418.34 101.372 418.624 101.16 418.968 101.008C419.32 100.856 419.692 100.78 420.084 100.78ZM426.137 102.004V105.664C426.137 105.912 426.193 106.092 426.305 106.204C426.425 106.308 426.625 106.36 426.905 106.36H427.745V107.5H426.665C426.049 107.5 425.577 107.356 425.249 107.068C424.921 106.78 424.757 106.312 424.757 105.664V102.004H423.977V100.888H424.757V99.244H426.137V100.888H427.745V102.004H426.137Z" fill="black"/>
</g>
<g clip-path="url(#clip1_54_2930)">
<circle cx="371.25" cy="127.5" r="4" fill="#6E473B"/>
<path d="M379.694 127.312C379.694 126.496 379.882 125.764 380.258 125.116C380.642 124.468 381.158 123.964 381.806 123.604C382.462 123.236 383.178 123.052 383.954 123.052C384.842 123.052 385.63 123.272 386.318 123.712C387.014 124.144 387.518 124.76 387.83 125.56H386.186C385.97 125.12 385.67 124.792 385.286 124.576C384.902 124.36 384.458 124.252 383.954 124.252C383.402 124.252 382.91 124.376 382.478 124.624C382.046 124.872 381.706 125.228 381.458 125.692C381.218 126.156 381.098 126.696 381.098 127.312C381.098 127.928 381.218 128.468 381.458 128.932C381.706 129.396 382.046 129.756 382.478 130.012C382.91 130.26 383.402 130.384 383.954 130.384C384.458 130.384 384.902 130.276 385.286 130.06C385.67 129.844 385.97 129.516 386.186 129.076H387.83C387.518 129.876 387.014 130.492 386.318 130.924C385.63 131.356 384.842 131.572 383.954 131.572C383.17 131.572 382.454 131.392 381.806 131.032C381.158 130.664 380.642 130.156 380.258 129.508C379.882 128.86 379.694 128.128 379.694 127.312ZM392.299 131.608C391.675 131.608 391.111 131.468 390.607 131.188C390.103 130.9 389.707 130.5 389.419 129.988C389.131 129.468 388.987 128.868 388.987 128.188C388.987 127.516 389.135 126.92 389.431 126.4C389.727 125.88 390.131 125.48 390.643 125.2C391.155 124.92 391.727 124.78 392.359 124.78C392.991 124.78 393.563 124.92 394.075 125.2C394.587 125.48 394.991 125.88 395.287 126.4C395.583 126.92 395.731 127.516 395.731 128.188C395.731 128.86 395.579 129.456 395.275 129.976C394.971 130.496 394.555 130.9 394.027 131.188C393.507 131.468 392.931 131.608 392.299 131.608ZM392.299 130.42C392.651 130.42 392.979 130.336 393.283 130.168C393.595 130 393.847 129.748 394.039 129.412C394.231 129.076 394.327 128.668 394.327 128.188C394.327 127.708 394.235 127.304 394.051 126.976C393.867 126.64 393.623 126.388 393.319 126.22C393.015 126.052 392.687 125.968 392.335 125.968C391.983 125.968 391.655 126.052 391.351 126.22C391.055 126.388 390.819 126.64 390.643 126.976C390.467 127.304 390.379 127.708 390.379 128.188C390.379 128.9 390.559 129.452 390.919 129.844C391.287 130.228 391.747 130.42 392.299 130.42ZM400.42 124.78C400.94 124.78 401.404 124.888 401.812 125.104C402.228 125.32 402.552 125.64 402.784 126.064C403.016 126.488 403.132 127 403.132 127.6V131.5H401.776V127.804C401.776 127.212 401.628 126.76 401.332 126.448C401.036 126.128 400.632 125.968 400.12 125.968C399.608 125.968 399.2 126.128 398.896 126.448C398.6 126.76 398.452 127.212 398.452 127.804V131.5H397.084V124.888H398.452V125.644C398.676 125.372 398.96 125.16 399.304 125.008C399.656 124.856 400.028 124.78 400.42 124.78ZM406.473 126.004V129.664C406.473 129.912 406.529 130.092 406.641 130.204C406.761 130.308 406.961 130.36 407.241 130.36H408.081V131.5H407.001C406.385 131.5 405.913 131.356 405.585 131.068C405.257 130.78 405.093 130.312 405.093 129.664V126.004H404.313V124.888H405.093V123.244H406.473V124.888H408.081V126.004H406.473ZM415.401 128.032C415.401 128.28 415.385 128.504 415.353 128.704H410.301C410.341 129.232 410.537 129.656 410.889 129.976C411.241 130.296 411.673 130.456 412.185 130.456C412.921 130.456 413.441 130.148 413.745 129.532H415.221C415.021 130.14 414.657 130.64 414.129 131.032C413.609 131.416 412.961 131.608 412.185 131.608C411.553 131.608 410.985 131.468 410.481 131.188C409.985 130.9 409.593 130.5 409.305 129.988C409.025 129.468 408.885 128.868 408.885 128.188C408.885 127.508 409.021 126.912 409.293 126.4C409.573 125.88 409.961 125.48 410.457 125.2C410.961 124.92 411.537 124.78 412.185 124.78C412.809 124.78 413.365 124.916 413.853 125.188C414.341 125.46 414.721 125.844 414.993 126.34C415.265 126.828 415.401 127.392 415.401 128.032ZM413.973 127.6C413.965 127.096 413.785 126.692 413.433 126.388C413.081 126.084 412.645 125.932 412.125 125.932C411.653 125.932 411.249 126.084 410.913 126.388C410.577 126.684 410.377 127.088 410.313 127.6H413.973ZM420.084 124.78C420.604 124.78 421.068 124.888 421.476 125.104C421.892 125.32 422.216 125.64 422.448 126.064C422.68 126.488 422.796 127 422.796 127.6V131.5H421.44V127.804C421.44 127.212 421.292 126.76 420.996 126.448C420.7 126.128 420.296 125.968 419.784 125.968C419.272 125.968 418.864 126.128 418.56 126.448C418.264 126.76 418.116 127.212 418.116 127.804V131.5H416.748V124.888H418.116V125.644C418.34 125.372 418.624 125.16 418.968 125.008C419.32 124.856 419.692 124.78 420.084 124.78ZM426.137 126.004V129.664C426.137 129.912 426.193 130.092 426.305 130.204C426.425 130.308 426.625 130.36 426.905 130.36H427.745V131.5H426.665C426.049 131.5 425.577 131.356 425.249 131.068C424.921 130.78 424.757 130.312 424.757 129.664V126.004H423.977V124.888H424.757V123.244H426.137V124.888H427.745V126.004H426.137Z" fill="black"/>
</g>
<g clip-path="url(#clip2_54_2930)">
<circle cx="371.25" cy="151.5" r="4" fill="#BEB5A9"/>
<path d="M379.694 151.312C379.694 150.496 379.882 149.764 380.258 149.116C380.642 148.468 381.158 147.964 381.806 147.604C382.462 147.236 383.178 147.052 383.954 147.052C384.842 147.052 385.63 147.272 386.318 147.712C387.014 148.144 387.518 148.76 387.83 149.56H386.186C385.97 149.12 385.67 148.792 385.286 148.576C384.902 148.36 384.458 148.252 383.954 148.252C383.402 148.252 382.91 148.376 382.478 148.624C382.046 148.872 381.706 149.228 381.458 149.692C381.218 150.156 381.098 150.696 381.098 151.312C381.098 151.928 381.218 152.468 381.458 152.932C381.706 153.396 382.046 153.756 382.478 154.012C382.91 154.26 383.402 154.384 383.954 154.384C384.458 154.384 384.902 154.276 385.286 154.06C385.67 153.844 385.97 153.516 386.186 153.076H387.83C387.518 153.876 387.014 154.492 386.318 154.924C385.63 155.356 384.842 155.572 383.954 155.572C383.17 155.572 382.454 155.392 381.806 155.032C381.158 154.664 380.642 154.156 380.258 153.508C379.882 152.86 379.694 152.128 379.694 151.312ZM392.299 155.608C391.675 155.608 391.111 155.468 390.607 155.188C390.103 154.9 389.707 154.5 389.419 153.988C389.131 153.468 388.987 152.868 388.987 152.188C388.987 151.516 389.135 150.92 389.431 150.4C389.727 149.88 390.131 149.48 390.643 149.2C391.155 148.92 391.727 148.78 392.359 148.78C392.991 148.78 393.563 148.92 394.075 149.2C394.587 149.48 394.991 149.88 395.287 150.4C395.583 150.92 395.731 151.516 395.731 152.188C395.731 152.86 395.579 153.456 395.275 153.976C394.971 154.496 394.555 154.9 394.027 155.188C393.507 155.468 392.931 155.608 392.299 155.608ZM392.299 154.42C392.651 154.42 392.979 154.336 393.283 154.168C393.595 154 393.847 153.748 394.039 153.412C394.231 153.076 394.327 152.668 394.327 152.188C394.327 151.708 394.235 151.304 394.051 150.976C393.867 150.64 393.623 150.388 393.319 150.22C393.015 150.052 392.687 149.968 392.335 149.968C391.983 149.968 391.655 150.052 391.351 150.22C391.055 150.388 390.819 150.64 390.643 150.976C390.467 151.304 390.379 151.708 390.379 152.188C390.379 152.9 390.559 153.452 390.919 153.844C391.287 154.228 391.747 154.42 392.299 154.42ZM400.42 148.78C400.94 148.78 401.404 148.888 401.812 149.104C402.228 149.32 402.552 149.64 402.784 150.064C403.016 150.488 403.132 151 403.132 151.6V155.5H401.776V151.804C401.776 151.212 401.628 150.76 401.332 150.448C401.036 150.128 400.632 149.968 400.12 149.968C399.608 149.968 399.2 150.128 398.896 150.448C398.6 150.76 398.452 151.212 398.452 151.804V155.5H397.084V148.888H398.452V149.644C398.676 149.372 398.96 149.16 399.304 149.008C399.656 148.856 400.028 148.78 400.42 148.78ZM406.473 150.004V153.664C406.473 153.912 406.529 154.092 406.641 154.204C406.761 154.308 406.961 154.36 407.241 154.36H408.081V155.5H407.001C406.385 155.5 405.913 155.356 405.585 155.068C405.257 154.78 405.093 154.312 405.093 153.664V150.004H404.313V148.888H405.093V147.244H406.473V148.888H408.081V150.004H406.473ZM415.401 152.032C415.401 152.28 415.385 152.504 415.353 152.704H410.301C410.341 153.232 410.537 153.656 410.889 153.976C411.241 154.296 411.673 154.456 412.185 154.456C412.921 154.456 413.441 154.148 413.745 153.532H415.221C415.021 154.14 414.657 154.64 414.129 155.032C413.609 155.416 412.961 155.608 412.185 155.608C411.553 155.608 410.985 155.468 410.481 155.188C409.985 154.9 409.593 154.5 409.305 153.988C409.025 153.468 408.885 152.868 408.885 152.188C408.885 151.508 409.021 150.912 409.293 150.4C409.573 149.88 409.961 149.48 410.457 149.2C410.961 148.92 411.537 148.78 412.185 148.78C412.809 148.78 413.365 148.916 413.853 149.188C414.341 149.46 414.721 149.844 414.993 150.34C415.265 150.828 415.401 151.392 415.401 152.032ZM413.973 151.6C413.965 151.096 413.785 150.692 413.433 150.388C413.081 150.084 412.645 149.932 412.125 149.932C411.653 149.932 411.249 150.084 410.913 150.388C410.577 150.684 410.377 151.088 410.313 151.6H413.973ZM420.084 148.78C420.604 148.78 421.068 148.888 421.476 149.104C421.892 149.32 422.216 149.64 422.448 150.064C422.68 150.488 422.796 151 422.796 151.6V155.5H421.44V151.804C421.44 151.212 421.292 150.76 420.996 150.448C420.7 150.128 420.296 149.968 419.784 149.968C419.272 149.968 418.864 150.128 418.56 150.448C418.264 150.76 418.116 151.212 418.116 151.804V155.5H416.748V148.888H418.116V149.644C418.34 149.372 418.624 149.16 418.968 149.008C419.32 148.856 419.692 148.78 420.084 148.78ZM426.137 150.004V153.664C426.137 153.912 426.193 154.092 426.305 154.204C426.425 154.308 426.625 154.36 426.905 154.36H427.745V155.5H426.665C426.049 155.5 425.577 155.356 425.249 155.068C424.921 154.78 424.757 154.312 424.757 153.664V150.004H423.977V148.888H424.757V147.244H426.137V148.888H427.745V150.004H426.137Z" fill="black"/>
</g>
<defs>
<clipPath id="clip0_54_2930">
<rect width="65" height="20" fill="white" transform="translate(363.25 93.5)"/>
</clipPath>
<clipPath id="clip1_54_2930">
<rect width="65" height="20" fill="white" transform="translate(363.25 117.5)"/>
</clipPath>
<clipPath id="clip2_54_2930">
<rect width="65" height="20" fill="white" transform="translate(363.25 141.5)"/>
</clipPath>
</defs>
</svg>
