<svg width="100" height="100" viewBox="0 0 100 100" fill="none" xmlns="http://www.w3.org/2000/svg">
<path fill-rule="evenodd" clip-rule="evenodd" d="M31.2644 0.810977C29.3123 2.29125 30.6951 6.48534 33.7861 8.54126C36.3889 10.2682 47.5325 10.8439 55.6665 9.77482C77.9537 6.73205 90.1546 12.8998 88.9345 26.469C87.2263 46.3704 86.901 60.4329 88.1211 67.1764C89.5039 74.9889 89.3414 74.4132 86.7385 72.4395C84.217 70.5481 78.4417 66.6829 75.1881 64.627C72.5039 62.9822 67.8674 60.5974 66.9727 63.6402C65.5085 68.6567 61.1162 76.3869 57.2118 81.6501C48.3458 93.5745 31.2644 96.2883 16.6232 93.739C10.4414 92.6699 10.2787 90.5317 10.5227 85.8442C11.3361 69.0678 12.4747 24.3308 14.4269 14.8735C15.403 10.1038 16.5418 9.2814 20.2021 8.21232C26.628 6.4031 22.2358 3.2781 14.6711 4.18271C9.38403 4.8406 6.37445 6.81428 4.50363 13.8044C1.65672 24.742 1.98208 44.6434 0.029921 85.3508C-0.45812 94.8903 5.07301 98.1798 13.0443 99.0022C17.7621 99.4956 24.9199 99.6601 36.9582 99.8245C51.9248 99.989 59.4079 100.236 64.451 99.4956C70.1448 98.6732 72.6667 96.6173 79.4179 92.0942C100.729 77.6205 99.9155 78.9363 99.9968 59.8573C100.16 16.1071 94.1404 4.92284 69.5757 3.77152C62.4178 3.44257 55.5039 2.62018 52.901 1.88005C46.0684 -0.0114046 33.2166 -0.669292 31.2644 0.810977ZM45.7428 24.1663C39.805 24.6597 37.7718 29.1006 42.8149 30.4986C46.9632 31.6499 67.7861 31.8966 74.7 31.1565C78.9296 30.6631 77.2214 27.6203 73.8051 26.14C68.7621 23.9196 58.4319 23.0972 45.7428 24.1663ZM35.4943 40.9427C21.5038 41.6006 25.164 45.4657 31.3459 46.6993C43.8722 49.1664 77.1402 49.4954 77.1402 46.2059C77.1402 41.6829 61.1978 39.7091 35.4943 40.9427ZM35.5753 68.4921C41.3505 68.3277 52.9011 67.3408 55.0159 66.6829C58.6762 65.5316 53.6331 61.5842 47.2886 60.6796C38.7479 59.4461 35.1686 59.1171 33.1351 59.2816C22.3982 59.8572 27.1159 68.7389 35.5753 68.4921ZM88.0397 77.7027C87.0636 78.4429 77.7095 87.9824 66.4845 92.7521C62.2549 94.5613 60.0587 94.3146 62.8242 90.6962C65.0204 86.6666 72.5853 69.6435 74.4561 69.6435C75.5135 69.7257 88.0397 77.7027 88.0397 77.7027Z" fill="#E4D8C8"/>
</svg>
