<svg width="60" height="100" viewBox="0 0 60 100" fill="none" xmlns="http://www.w3.org/2000/svg">
<path fill-rule="evenodd" clip-rule="evenodd" d="M52.7545 2.13367C51.8046 3.13313 50.6093 4.53779 50.0578 5.2401C48.8319 6.83384 49.1078 6.88789 46.8401 4.53779C42.7333 0.242781 40.3121 0.729016 36.972 6.53673L36.267 7.75227C34.0299 5.02402 33.2943 4.13259 31.7622 3.13313C29.1573 1.48534 26.9505 2.59288 24.1006 7.02293C22.7829 9.04887 23.1201 9.10288 20.7295 6.50967C16.2247 1.53938 13.7116 1.64744 10.1262 6.9419L8.56308 9.23796C3.50637 3.78143 1.08558 0.999137 0.288719 10.1294C-0.416286 18.3952 0.411192 74.068 0.258103 92.0852C0.196867 99.2976 0.748384 100 2.18861 100C3.01609 100 5.43728 98.0821 7.27594 95.975L8.31774 94.7865L10.0033 96.4345C14.6004 100.918 16.6231 100.756 19.5346 95.6511C20.3927 94.1384 21.1891 93.0039 21.312 93.1388C21.4345 93.2738 22.5375 94.5436 23.7328 95.975C27.5942 100.54 30.1991 99.6488 32.804 94.8948C34.2753 92.2205 34.0606 92.2475 35.7155 94.7325C39.1479 99.8381 41.6605 100.054 44.7867 95.5158C46.8397 92.5174 46.7172 92.5987 47.6059 94.1924C48.4947 95.8131 50.7321 97.8929 52.1724 98.4333C60.6002 101.567 59.4662 98.2171 59.5274 95.1916C59.8952 78.7411 60.2018 11.615 59.834 6.91487C59.3437 -0.0813879 56.5853 -1.94522 52.7545 2.13367ZM30.8123 7.15798C31.6704 8.40057 32.6203 9.96729 32.9575 10.6426C34.5815 14.0192 37.5848 13.2628 40.1591 8.80573C42.5802 4.64581 42.6721 4.64584 44.7867 8.15747C46.0739 10.3185 47.085 11.1288 48.4951 11.1288C50.0884 11.1288 50.3031 10.9667 52.632 7.86029C53.8579 6.23955 54.8997 4.94295 54.961 4.99699C55.1451 5.15906 55.0532 94.8674 54.8691 95.5698C54.6242 96.4075 54.3788 96.2182 51.927 93.409C46.5335 87.2772 44.2352 89.1951 40.5575 94.5436C39.8219 93.6793 39.3932 93.0579 39.1479 92.6257C36.4205 87.5471 31.4863 88.8709 29.0651 92.7337L27.9314 94.5706L26.0621 92.7606C23.7022 90.4646 21.3422 89.33 19.5036 89.6003C17.818 89.8432 17.4506 90.6265 14.5085 95.921C13.5892 95.246 11.6587 93.8412 10.494 92.8146C9.02275 91.4912 6.29538 91.4102 5.40666 92.6527C4.79351 93.49 6.326 32.3608 4.45672 14.3163C4.05829 10.3725 4.15014 10.1023 5.40666 11.8852C6.47908 13.3979 6.96937 13.641 8.86926 13.641C10.4324 13.614 11.5664 12.7226 12.9148 10.3455C14.0488 8.34655 14.8151 7.23904 15.4278 6.26657C16.2247 7.21202 19.3199 10.9398 20.0861 11.534C21.312 12.5065 24.7134 12.3174 24.7134 11.2909C24.7134 10.7507 26.8892 8.26549 28.2376 6.21253C29.2798 4.59179 29.0038 4.48374 30.8123 7.15798Z" fill="#E4D8C8"/>
</svg>
