<svg width="283" height="283" viewBox="0 0 283 283" fill="none" xmlns="http://www.w3.org/2000/svg">
<path d="M280.222 56.0994C279.24 54.9235 278.011 53.9776 276.622 53.3287C275.234 52.6797 273.72 52.3435 272.188 52.3438H61.0852L53.1289 8.59746C52.6907 6.1853 51.4198 4.00345 49.5377 2.4323C47.6557 0.861143 45.2819 0.00035433 42.8303 0H10.4688C7.69227 0 5.0295 1.10295 3.06623 3.06623C1.10295 5.0295 0 7.69226 0 10.4688C0 13.2452 1.10295 15.908 3.06623 17.8713C5.0295 19.8345 7.69227 20.9375 10.4688 20.9375H34.0234L67.4711 204.52C68.4564 209.965 70.8625 215.052 74.4459 219.268C69.5 223.888 65.9302 229.787 64.1323 236.311C62.3344 242.836 62.3787 249.731 64.2602 256.232C66.1417 262.733 69.7869 268.585 74.7917 273.141C79.7965 277.697 85.9652 280.777 92.6139 282.041C99.2625 283.305 106.131 282.703 112.459 280.301C118.786 277.9 124.324 273.792 128.46 268.435C132.596 263.078 135.167 256.68 135.888 249.951C136.61 243.222 135.453 236.425 132.547 230.312H191.984C189.642 235.216 188.43 240.582 188.438 246.016C188.438 253.262 190.586 260.347 194.613 266.372C198.639 272.398 204.361 277.094 211.056 279.867C217.752 282.64 225.119 283.366 232.226 281.952C239.334 280.538 245.863 277.049 250.987 271.924C256.111 266.8 259.601 260.271 261.015 253.164C262.429 246.056 261.703 238.689 258.93 231.994C256.156 225.299 251.46 219.576 245.435 215.55C239.409 211.524 232.325 209.375 225.078 209.375H98.367C95.9154 209.375 93.5416 208.514 91.6596 206.943C89.7775 205.372 88.5066 203.19 88.0684 200.778L83.9201 177.969H235.717C243.072 177.968 250.193 175.385 255.839 170.672C261.485 165.958 265.298 159.413 266.613 152.176L282.525 64.6838C282.795 63.1716 282.728 61.6186 282.33 60.1351C281.932 58.6515 281.212 57.2737 280.222 56.0994ZM115.156 246.016C115.156 249.121 114.235 252.157 112.51 254.74C110.784 257.322 108.332 259.335 105.462 260.523C102.593 261.712 99.4357 262.023 96.3896 261.417C93.3435 260.811 90.5455 259.316 88.3493 257.119C86.1532 254.923 84.6576 252.125 84.0517 249.079C83.4458 246.033 83.7568 242.876 84.9453 240.006C86.1339 237.137 88.1466 234.684 90.729 232.959C93.3113 231.233 96.3474 230.312 99.4531 230.312C103.618 230.312 107.612 231.967 110.557 234.912C113.502 237.857 115.156 241.851 115.156 246.016ZM240.781 246.016C240.781 249.121 239.86 252.157 238.135 254.74C236.409 257.322 233.957 259.335 231.087 260.523C228.218 261.712 225.061 262.023 222.015 261.417C218.969 260.811 216.17 259.316 213.974 257.119C211.778 254.923 210.283 252.125 209.677 249.079C209.071 246.033 209.382 242.876 210.57 240.006C211.759 237.137 213.772 234.684 216.354 232.959C218.936 231.233 221.972 230.312 225.078 230.312C229.243 230.312 233.237 231.967 236.182 234.912C239.127 237.857 240.781 241.851 240.781 246.016ZM246.016 148.434C245.576 150.853 244.3 153.04 242.409 154.612C240.519 156.184 238.136 157.04 235.678 157.031H80.1121L64.8932 73.2812H259.638L246.016 148.434Z" fill="#E1D4C2"/>
</svg>
