<svg width="297" height="330" viewBox="0 0 297 330" fill="none" xmlns="http://www.w3.org/2000/svg">
<path d="M207.831 317.779C207.831 321.02 206.582 324.129 204.359 326.421C202.137 328.712 199.122 330 195.979 330H101.165C98.0215 330 95.0069 328.712 92.7843 326.421C90.5617 324.129 89.313 321.02 89.313 317.779C89.313 314.538 90.5617 311.429 92.7843 309.137C95.0069 306.845 98.0215 305.558 101.165 305.558H195.979C199.122 305.558 202.137 306.845 204.359 309.137C206.582 311.429 207.831 314.538 207.831 317.779ZM295.815 67.7331C282.495 40.887 262.494 18.1745 237.86 1.92195C236.544 1.05499 235.075 0.464825 233.537 0.185382C231.998 -0.0940612 230.422 -0.0572695 228.898 0.29364C227.373 0.644549 225.931 1.30266 224.655 2.23013C223.378 3.15761 222.291 4.33616 221.458 5.69804C220.624 7.05992 220.06 8.57826 219.797 10.1658C219.534 11.7533 219.579 13.3788 219.927 14.9486C220.276 16.5185 220.922 18.0018 221.828 19.3134C222.734 20.6249 223.883 21.7388 225.208 22.5911C246.343 36.4545 263.466 55.9319 274.779 78.9766C276.273 81.762 278.763 83.836 281.719 84.7573C284.674 85.6785 287.861 85.3743 290.602 83.9093C293.343 82.4443 295.422 79.9342 296.395 76.9132C297.369 73.8921 297.161 70.5984 295.815 67.7331ZM11.8468 85.576C14.0181 85.5751 16.1474 84.9591 18.0023 83.7953C19.8573 82.6315 21.3665 80.9646 22.3653 78.9766C33.6778 55.9319 50.8009 36.4545 71.9353 22.5911C73.2605 21.7388 74.4093 20.6249 75.3157 19.3134C76.222 18.0018 76.868 16.5185 77.2166 14.9486C77.5651 13.3788 77.6093 11.7533 77.3466 10.1658C77.084 8.57826 76.5196 7.05992 75.686 5.69804C74.8524 4.33616 73.7659 3.15761 72.4891 2.23013C71.2123 1.30266 69.7704 0.644549 68.2461 0.29364C66.7218 -0.0572695 65.1453 -0.0940612 63.6072 0.185382C62.0691 0.464825 60.5997 1.05499 59.2836 1.92195C34.65 18.1745 14.6487 40.887 1.32836 67.7331C0.392633 69.5956 -0.062458 71.6751 0.00689034 73.7715C0.0762387 75.8679 0.667691 77.9106 1.72433 79.703C2.78096 81.4954 4.26721 82.9772 6.04005 84.0058C7.81288 85.0344 9.81262 85.5752 11.8468 85.576ZM287.549 244.36C289.648 248.073 290.762 252.291 290.776 256.589C290.79 260.887 289.705 265.113 287.63 268.84C285.555 272.568 282.564 275.666 278.958 277.821C275.351 279.976 271.258 281.112 267.09 281.115H30.0541C25.8885 281.107 21.7987 279.966 18.1965 277.809C14.5943 275.652 11.6071 272.554 9.5357 268.827C7.4643 265.1 6.38189 260.877 6.39749 256.581C6.4131 252.286 7.52618 248.071 9.62461 244.36C22.9727 220.605 30.0541 186.829 30.0541 146.682C30.0541 114.269 42.5408 83.1843 64.7672 60.2651C86.9936 37.3459 117.139 24.4701 148.572 24.4701C180.005 24.4701 210.15 37.3459 232.377 60.2651C254.603 83.1843 267.09 114.269 267.09 146.682C267.09 186.813 274.171 220.59 287.549 244.36ZM267.09 256.673C251.327 228.763 243.386 191.763 243.386 146.682C243.386 120.752 233.397 95.8839 215.616 77.5485C197.835 59.2132 173.718 48.9125 148.572 48.9125C123.426 48.9125 99.3092 59.2132 81.5281 77.5485C63.747 95.8839 53.7577 120.752 53.7577 146.682C53.7577 191.778 45.7873 228.778 30.0541 256.673H267.09Z" fill="#E1D4C2"/>
</svg>
