<svg width="124" height="124" viewBox="0 0 124 124" fill="none" xmlns="http://www.w3.org/2000/svg">
<path d="M62 0C49.7376 0 37.7505 3.63624 27.5547 10.4489C17.3588 17.2615 9.41213 26.9446 4.7195 38.2736C0.0268633 49.6026 -1.20094 62.0688 1.19134 74.0956C3.58362 86.1224 9.48855 97.1697 18.1594 105.841C26.8303 114.511 37.8776 120.416 49.9044 122.809C61.9312 125.201 74.3974 123.973 85.7264 119.28C97.0554 114.588 106.738 106.641 113.551 96.4453C120.364 86.2495 124 74.2624 124 62C123.981 45.5624 117.443 29.8034 105.82 18.1803C94.1966 6.55714 78.4376 0.0189337 62 0ZM114.462 62C114.466 66.8381 113.798 71.6534 112.476 76.3077H89.5185C90.981 66.8253 90.981 57.1747 89.5185 47.6923H112.476C113.798 52.3466 114.466 57.1618 114.462 62ZM46.5 85.8461H77.5C74.446 95.8531 69.1442 105.029 62 112.673C54.8585 105.027 49.5572 95.8518 46.5 85.8461ZM44.175 76.3077C42.5376 66.8395 42.5376 57.1605 44.175 47.6923H79.8727C81.5101 57.1605 81.5101 66.8395 79.8727 76.3077H44.175ZM9.53849 62C9.53434 57.1618 10.2025 52.3466 11.5237 47.6923H34.4816C33.019 57.1747 33.019 66.8253 34.4816 76.3077H11.5237C10.2025 71.6534 9.53434 66.8381 9.53849 62ZM77.5 38.1538H46.5C49.554 28.1469 54.8558 18.9707 62 11.3269C69.1415 18.9727 74.4429 28.1482 77.5 38.1538ZM108.697 38.1538H87.4617C84.7853 28.3346 80.2745 19.1108 74.1675 10.9692C81.5462 12.7418 88.4543 16.0889 94.4183 20.7811C100.382 25.4733 105.261 31.3996 108.721 38.1538H108.697ZM49.8325 10.9692C43.7255 19.1108 39.2147 28.3346 36.5383 38.1538H15.2794C18.7388 31.3996 23.6177 25.4733 29.5817 20.7811C35.5457 16.0889 42.4539 12.7418 49.8325 10.9692ZM15.2794 85.8461H36.5383C39.2147 95.6653 43.7255 104.889 49.8325 113.031C42.4539 111.258 35.5457 107.911 29.5817 103.219C23.6177 98.5267 18.7388 92.6004 15.2794 85.8461ZM74.1675 113.031C80.2745 104.889 84.7853 95.6653 87.4617 85.8461H108.721C105.261 92.6004 100.382 98.5267 94.4183 103.219C88.4543 107.911 81.5462 111.258 74.1675 113.031Z" fill="#E4D8C8"/>
</svg>
