<svg width="80" height="77" viewBox="0 0 80 77" fill="none" xmlns="http://www.w3.org/2000/svg">
<path d="M78.7679 42.781L63.5893 31.2784L78.7679 19.7757C79.148 19.488 79.4587 19.1036 79.6733 18.6555C79.8879 18.2074 80 17.709 80 17.2031C80 16.6971 79.8879 16.1988 79.6733 15.7507C79.4587 15.3026 79.148 14.9182 78.7679 14.6304L60.1964 0.555158C59.7189 0.193649 59.1521 0 58.5714 0C57.9908 0 57.424 0.193649 56.9464 0.555158L40 13.3988L23.0536 0.555158C22.576 0.193649 22.0092 0 21.4286 0C20.8479 0 20.2811 0.193649 19.8035 0.555158L1.2321 14.6304C0.851984 14.9182 0.541301 15.3026 0.326704 15.7507C0.112107 16.1988 0 16.6971 0 17.2031C0 17.709 0.112107 18.2074 0.326704 18.6555C0.541301 19.1036 0.851984 19.488 1.2321 19.7757L16.4285 31.2784L1.24996 42.781C0.869841 43.0687 0.559159 43.4531 0.344562 43.9012C0.129964 44.3493 0.0178576 44.8477 0.0178576 45.3536C0.0178576 45.8596 0.129964 46.3579 0.344562 46.806C0.559159 47.2541 0.869841 47.6385 1.24996 47.9263L19.8214 62.0015C20.299 62.3631 20.8658 62.5567 21.4464 62.5567C22.027 62.5567 22.5939 62.3631 23.0714 62.0015L40 49.1579L56.9464 62.0015C57.424 62.3631 57.9908 62.5567 58.5714 62.5567C59.1521 62.5567 59.7189 62.3631 60.1964 62.0015L78.7679 47.9263C79.148 47.6385 79.4587 47.2541 79.6733 46.806C79.8879 46.3579 80 45.8596 80 45.3536C80 44.8477 79.8879 44.3493 79.6733 43.9012C79.4587 43.4531 79.148 43.0687 78.7679 42.781ZM40 41.5494L26.4464 31.2784L40.0179 21.0073L53.5714 31.2784L40 41.5494ZM58.5714 6.93204L72.1429 17.2031L58.5714 27.4741L45.0179 17.2031L58.5714 6.93204ZM21.4286 6.93204L35 17.2031L21.4286 27.4741L7.87496 17.2031L21.4286 6.93204ZM21.4286 55.6247L7.87496 45.3536L21.4464 35.0826L35 45.3536L21.4286 55.6247ZM58.5714 55.6247L45.0179 45.3536L58.5714 35.0826L72.1429 45.3536L58.5714 55.6247ZM50.8822 65.2584C51.3142 65.9393 51.4816 66.7801 51.3477 67.5961C51.2138 68.412 50.7894 69.1364 50.1679 69.61L41.6357 76.0768C41.1582 76.4383 40.5913 76.632 40.0107 76.632C39.4301 76.632 38.8633 76.4383 38.3857 76.0768L29.8428 69.5944C29.2231 69.121 28.7998 68.3981 28.6658 67.5839C28.5317 66.7698 28.6978 65.9306 29.1276 65.2501C29.5574 64.5697 30.2159 64.1033 30.9591 63.9532C31.7023 63.8031 32.4695 63.9814 33.0928 64.4491L40 69.6999L46.9072 64.4647C47.5304 63.9929 48.2993 63.8115 49.0448 63.9603C49.7903 64.1092 50.4512 64.5761 50.8822 65.2584Z" fill="#E1D4C2"/>
</svg>
