<svg width="137" height="137" viewBox="0 0 137 137" fill="none" xmlns="http://www.w3.org/2000/svg">
<path d="M68.4556 5.99854C102.974 5.99862 130.958 33.9817 130.958 68.5005C130.957 103.019 102.974 131.002 68.4556 131.002C33.9368 131.002 5.95369 103.019 5.95361 68.5005C5.95361 33.9817 33.9368 5.99854 68.4556 5.99854ZM44.7798 85.6265C36.6167 85.6265 29.5879 91.3876 27.9868 99.3921L27.2124 103.265C37.1069 114.991 51.9117 122.44 68.4556 122.44C85.0399 122.44 99.8765 114.955 109.771 103.179L109.013 99.3921C107.412 91.3878 100.384 85.6266 92.2212 85.6265H87.647C85.6531 85.6265 83.6862 86.0903 81.9028 86.9819L78.0737 88.897C72.0474 91.9101 64.9536 91.91 58.9272 88.897L55.0981 86.9819C53.3148 86.0902 51.3479 85.6265 49.354 85.6265H44.7798ZM68.5005 25.689C54.3137 25.689 42.813 37.1897 42.813 51.3765C42.8132 65.5631 54.3138 77.064 68.5005 77.064C82.687 77.0638 94.1877 65.563 94.188 51.3765C94.188 37.1898 82.6872 25.6891 68.5005 25.689Z" fill="#E1D4C2"/>
</svg>
