<svg width="100" height="100" viewBox="0 0 100 100" fill="none" xmlns="http://www.w3.org/2000/svg">
<path d="M96.9281 39.877C81.0278 22.4768 67.9163 9.69025 59.3137 3.89008C52.0757 -0.987288 46.3206 -1.71234 39.4384 4.21963C32.1411 10.5471 22.1146 21.9496 10.0709 33.3519C-5.05786 47.7207 -1.26089 59.123 9.12161 60.2436L13.8679 60.771C14.0459 64.8576 14.8171 88.6513 15.2917 92.1447C15.4697 93.5947 15.2919 95.2422 14.8172 95.7696C11.3169 99.6583 22.8859 100.976 45.0745 99.263C87.3169 95.9675 90.6983 95.3743 87.7319 91.683C86.664 90.3651 87.613 57.8708 87.613 57.8708L90.2827 56.8824C100.072 53.389 102.802 46.2706 96.9281 39.877ZM43.4727 91.881C42.6421 84.6305 41.5742 74.744 43.295 69.0758C45.9056 63.1438 50.236 61.2984 54.33 64.2644C58.0079 66.9667 59.4322 71.6465 59.4914 81.4671L59.5511 90.3651C59.5511 90.2987 46.8546 91.4193 43.4727 91.881ZM79.7225 89.6397L66.077 90.0356C66.077 90.0356 65.9581 85.8832 65.6023 80.1486C64.7717 65.1871 60.9156 59.8483 50.8889 59.9141C38.4894 59.9799 34.9294 67.362 37.421 87.9923L37.9554 92.4084H25.2588L22.9451 62.0232C22.4111 55.1028 24.0723 52.73 40.1505 36.8453C50.4733 26.6952 48.338 27.0905 55.1605 33.9451C60.0253 38.8228 79.6633 57.6729 79.6633 57.6729V89.6397H79.7225ZM88.5032 51.4778C85.4179 54.9049 82.8671 53.389 70.5861 40.5366C47.6851 16.6766 50.9481 16.8085 30.1239 39.0865C23.2418 46.4022 19.2075 50.6867 16.5971 52.9274C11.1389 57.5414 7.40116 50.4888 10.3676 45.4795C12.5627 41.723 17.9022 35.7252 28.344 23.8611C47.3885 2.17645 47.6851 1.91274 52.1349 5.66967C53.3213 6.65831 57.7711 11.1402 61.9238 15.5563C61.9835 15.6222 86.9014 41.1298 87.3761 41.5908C90.9949 45.0184 91.3507 48.3139 88.5032 51.4778Z" fill="#E4D8C8"/>
<path d="M44.1256 37.9658C39.2603 40.3386 38.0739 48.5776 42.049 52.73C46.0241 56.8823 55.7537 55.6959 58.4827 50.7525C63.6442 41.3934 54.2708 33.0887 44.1256 37.9658ZM52.9655 41.3934C56.1693 43.8978 53.7364 51.082 49.6428 51.082C46.0833 51.082 45.7275 44.0299 49.1089 41.1297C50.7108 39.7454 50.8889 39.8112 52.9655 41.3934Z" fill="#E4D8C8"/>
</svg>
