<svg width="162" height="120" viewBox="0 0 162 120" fill="none" xmlns="http://www.w3.org/2000/svg">
<path d="M86.3818 85.6975C94.8487 80.3732 101.368 72.4095 104.953 63.0112C108.537 53.613 108.993 43.2916 106.251 33.6086C103.508 23.9256 97.717 15.4079 89.753 9.34396C81.7889 3.28007 72.0855 0 62.1107 0C52.1359 0 42.4325 3.28007 34.4684 9.34396C26.5044 15.4079 20.7131 23.9256 17.9707 33.6086C15.2283 43.2916 15.684 53.613 19.2689 63.0112C22.8537 72.4095 29.3727 80.3732 37.8396 85.6975C23.898 90.3055 11.354 98.9148 1.2675 111.035C0.345358 112.142 -0.103345 113.574 0.0201019 115.015C0.143549 116.456 0.829035 117.789 1.92576 118.72C3.02248 119.651 4.44061 120.104 5.86816 119.98C7.29572 119.855 8.61577 119.163 9.53791 118.056C23.0879 101.723 41.7621 92.7322 62.077 92.7322C82.3918 92.7322 101.066 101.723 114.65 118.056C115.572 119.163 116.892 119.855 118.319 119.98C119.747 120.104 121.165 119.651 122.262 118.72C123.359 117.789 124.044 116.456 124.168 115.015C124.291 113.574 123.842 112.142 122.92 111.035C112.834 98.9148 100.29 90.3055 86.3818 85.6975ZM26.9699 46.3797C26.9699 39.3692 29.0289 32.5161 32.8865 26.687C36.7441 20.8579 42.2271 16.3147 48.6421 13.6319C55.057 10.9491 62.1159 10.2471 68.926 11.6148C75.7361 12.9825 81.9916 16.3584 86.9014 21.3156C91.8112 26.2728 95.1548 32.5887 96.5094 39.4646C97.864 46.3404 97.1688 53.4674 94.5116 59.9443C91.8545 66.4212 87.3547 71.9572 81.5814 75.852C75.8081 79.7469 69.0205 81.8257 62.077 81.8257C52.7693 81.8149 43.8459 78.077 37.2644 71.4319C30.6828 64.7868 26.9806 55.7773 26.9699 46.3797ZM160.417 69.3242L138.813 91.1371C138.311 91.6442 137.716 92.0464 137.06 92.3208C136.404 92.5953 135.701 92.7365 134.992 92.7365C134.282 92.7365 133.579 92.5953 132.923 92.3208C132.268 92.0464 131.672 91.6442 131.17 91.1371L120.368 80.2307C119.355 79.2074 118.785 77.8196 118.785 76.3725C118.785 74.9254 119.355 73.5376 120.368 72.5144C121.382 71.4911 122.756 70.9162 124.189 70.9162C125.623 70.9162 126.997 71.4911 128.011 72.5144L134.992 79.5695L152.775 61.6079C153.788 60.5846 155.163 60.0098 156.596 60.0098C158.029 60.0098 159.404 60.5846 160.417 61.6079C161.431 62.6311 162 64.019 162 65.466C162 66.9131 161.431 68.301 160.417 69.3242Z" fill="#E4D8C8"/>
</svg>
